<?xml version="1.0" encoding="UTF-8" standalone="no"?>
<!-- Created with Inkscape (http://www.inkscape.org/) -->

<svg
   xmlns:dc="http://purl.org/dc/elements/1.1/"
   xmlns:cc="http://creativecommons.org/ns#"
   xmlns:rdf="http://www.w3.org/1999/02/22-rdf-syntax-ns#"
   xmlns:svg="http://www.w3.org/2000/svg"
   xmlns="http://www.w3.org/2000/svg"
   xmlns:sodipodi="http://sodipodi.sourceforge.net/DTD/sodipodi-0.dtd"
   xmlns:inkscape="http://www.inkscape.org/namespaces/inkscape"
   id="svg3039"
   sodipodi:docname="mealplate.svg"
   viewBox="0 0 5056 2560"
   version="1.1"
   inkscape:version="0.91 r13725">
  <defs
     id="defs3043" />
  <sodipodi:namedview
     id="namedview3041"
     bordercolor="#666666"
     inkscape:pageshadow="2"
     guidetolerance="10"
     pagecolor="#ffffff"
     gridtolerance="10"
     inkscape:window-maximized="1"
     inkscape:zoom="0.13195079"
     objecttolerance="10"
     borderopacity="1"
     inkscape:current-layer="svg3039"
     inkscape:cx="3884.7603"
     inkscape:cy="671.06639"
     inkscape:window-y="1"
     inkscape:window-x="4"
     inkscape:window-width="1916"
     showgrid="false"
     inkscape:pageopacity="0"
     inkscape:window-height="1035" />
  <g
     id="g5426"
     inkscape:export-ydpi="300"
     inkscape:export-xdpi="300"
     inkscape:export-filename="/home/nara/GUNGA/NUTRIfamily/paginas/DESENHOS CARTILHA/HORA014.png">
    <g
       id="g5243"
       transform="matrix(6.0596928,0.31626057,-0.24581304,7.7963396,-11499.633,-2022.8725)">
      <g
         id="g143580"
         transform="matrix(1.058065,2.2751681e-4,2.2751681e-4,1.0636645,-156.81761,-11.685073)">
        <path
           inkscape:connector-curvature="0"
           style="fill:#000000"
           d="m 2446.5,185.03 c -15.045,0.20183 -22.097,17.088 -36.094,19.812 -5.1624,-0.33732 -4.8441,-6.476 -6.375,-9.8438 -4.4349,-8.5569 -16.409,-11.094 -24.219,-5.5312 -9.6422,4.7933 -15.645,15.644 -15.594,26.094 -4.1439,1.144 -9.5077,2.2295 -12.281,-2 -18.483,-13.219 -44.284,-7.6367 -61.588,4.9577 -12.185,7.8259 -24.458,18.226 -28.037,32.792 -3.0171,1.8694 -6.776,3.9105 -9.8437,4.7812 -8.4722,-10.764 -25.709,-17.12 -37.938,-8.9062 -4.7614,3.2994 -6.3808,9.458 -6.6562,14.844 -9.6644,1.8379 -22.428,0.57328 -28.75,9.7188 -1.4773,2.7859 -1.4457,6.2 -0.375,9.125 -15.92,-1.3901 -31.461,3.6926 -47.04,6.274 -43.401,9.7736 -86.736,23.481 -124.77,46.913 -14.711,9.534 -30.647,22.826 -31.219,41.75 -1.0385,21.925 14.806,40.98 33.812,50.031 23.111,11.276 49.151,14.741 74.344,19.094 86.745,12.625 174.78,6.2612 261.99,2.7978 90.457,-5.0864 181.79,-12.845 268.73,-39.683 27.593,-8.9426 56.248,-18.752 78.437,-37.927 10.296,-8.9886 17.521,-23.797 11.844,-37.281 -6.7659,-16.978 -24.643,-25.83 -40.272,-33.14 -22.132,-9.5672 -45.845,-14.545 -69.603,-18.328 -0.9698,-11.023 -4.1284,-22.041 -10.531,-31.188 7.1878,-11.696 4.8447,-28.69 -6.8125,-36.625 -10.659,-8.8108 -25.846,-9.6924 -38.719,-7.8125 -3.6386,-13.288 -18.9,-20.64 -31.906,-19.281 -14.082,2.1357 -22.378,16.15 -35.938,19.281 -4.6939,-6.9214 -8.5959,-16.39 -17.375,-19.625 -2.2993,-0.86357 -4.7582,-1.2474 -7.2187,-1.0938 z m 64.656,17.406 c 4.145,0.81933 12.244,2.7999 10.781,8.5 -1.2791,2.7722 -1.6413,6.7307 -1.5624,9.2188 -4.9752,-2.0443 -10.381,-0.37373 -15.406,-0.28125 -1.7324,-3.985 -5.1612,-7.0202 -8.875,-9.125 4.5982,-3.2491 9.529,-7.3797 15.062,-8.3125 z m -64.344,0.71875 c 6.7698,3.5012 6.8622,13.156 13.563,17.031 2.519,2.213 8.04,2.1415 9.4687,3.25 -2.5166,3.811 -9.1918,6.9082 -12.844,3.2812 -0.7515,-7.1718 -3.7646,-14.728 -10.5,-18.281 -1.3623,-1.6105 -7.6237,-1.2496 -3.5938,-3.25 1.2494,-0.61437 2.4909,-2.1323 3.9062,-2.0312 z m -57.875,1.9375 c 0.5254,3.9814 2.939,7.3786 5.3126,10.375 -3.4759,-1.2166 -9.1576,0.2048 -11.188,-3.3125 0.2517,-3.1726 3.3584,-6.2448 5.875,-7.0625 z m 33.75,15.219 c -1.0427,2.7682 -4.2893,3.0398 -6.6874,1.7812 2.0748,-0.15745 5.7603,-1.7456 6.6874,-1.7812 z m 128.66,1.7188 c 6.661,0.60712 14.152,3.0645 18.125,8.7812 1.1008,1.8742 1.7317,5.9762 -0.9687,3.2812 -10.442,-6.5892 -23.22,-7.846 -35.344,-8.1875 6.1491,-0.85321 11.925,-3.6467 18.188,-3.875 z m -112,1.8125 c 0.4702,3.0445 0.4353,7.5865 1.3125,9.875 -3.3456,-0.63235 -7.0276,1.0525 -8.7812,3.6875 -2.7077,-2.2378 2.7153,-3.7937 3.0312,-6.3438 1.5183,-2.3417 2.7949,-5.1563 4.4375,-7.2188 z m 49.594,2.1875 c 3.3407,1.6715 3.3455,7.1893 7.5,8.3438 2.3835,1.5483 -5.6277,2.7914 -7.3075,4.3708 -3.2712,1.0822 -6.7803,4.2753 -9.7549,4.223 -1.5571,-1.4763 -5.5531,-2.1586 -1.875,-3.8438 4.4849,-3.545 6.5637,-10.343 11.437,-13.094 z m -182.12,4.8125 c -2.3083,2.5431 -2.7218,7.4055 -4.375,9.375 -1.9214,-0.70073 -5.9584,-1.513 -6.5,-2.5312 3.5032,-2.7791 7.2695,-5.3291 11.219,-7.3125 l -0.3438,0.46875 z m 73.781,1.7812 c 5.5527,0.0865 12.972,0.33492 17.156,2.0625 -4.9751,1.9386 -9.0596,7.542 -10.406,11.719 -1.2033,-5.1647 -3.5381,-10.576 -8.0313,-13.719 0.429,0.0512 0.8534,-0.0716 1.2813,-0.0625 z m -31.75,7.6562 c -0.5886,1.9932 0.1957,4.9655 0,6.2188 -3.8233,-2.2127 -8.8427,-2.4427 -12.719,-0.15625 3.8508,-2.4661 8.6774,-5.2976 12.719,-6.0625 z m 18.125,6.0312 c 3.5638,-0.28422 4.2156,3.6097 3.5937,6.3438 0.2114,3.347 1.0718,6.6634 2.75,9.5625 -6.4118,5.0025 -12.61,13.093 -10.187,21.5 -4.6636,0.84357 -9.774,3.1368 -13.188,5.5 0.3749,-6.5625 -5.0699,-12.269 -9.9062,-14.906 1.5108,-3.4489 0.4615,-7.4604 1.625,-10.938 4.4157,9.4911 19.259,11.853 25.438,2.9375 4.803,-6.0112 1.4551,-13.739 -0.3125,-20 l 0.1875,0 z m -36.281,4.1875 c -5.8236,6.4014 -7.8073,16.197 -4.8124,24.375 -2.5023,0.48358 -5.6555,2.2794 -7.5626,2.5625 1.8642,-7.4079 -0.1311,-16.603 6.875,-21.812 1.6033,-1.7499 4.4815,-4.411 5.5,-5.125 z m 108.97,1.0312 c 3.1662,2.6644 4.6809,7.4586 9.4062,8.125 4.8337,1.6578 10.204,-2.1776 13.719,-3.1562 -5.7725,4.6279 -11.901,9.2595 -19.25,11.062 -0.3625,-5.4618 -2.4458,-11.322 -3.875,-16.031 z m 64.875,2.1562 c 1.6205,2.2866 4.0387,4.0028 6.7188,4.8438 -16.197,1.015 -28.324,12.966 -43.313,17.875 11.897,-7.8531 22.109,-18.697 35.938,-23.406 l 0.6562,0.6875 z m -82.406,0.25 c 2.6947,4.562 5.7829,10.073 4.5,15.531 -2.7531,2.4581 -2.1318,0.1228 -2.2813,-2.125 -0.2345,-3.3607 -3.0091,-6.3168 -4.6875,-8.4688 0.8862,-1.6148 1.6981,-3.2983 2.4688,-4.9375 z m -125.59,2.5 c 2.7579,0.64076 7.5849,0.0793 4.6875,4 -0.59,2.1309 -4.7598,2.0072 -4.0625,-0.875 -0.18,-0.99343 -0.3742,-2.2819 -0.625,-3.125 z m 259.97,0.875 c 3.257,0.29198 8.111,-1.1689 9.0624,3.3438 1.5244,3.2097 -2.1559,6.9329 -4.7812,3.9688 -3.1685,-2.4262 -6.3682,-5.8475 -10.688,-5.5 1.9532,-1.096 4.139,-1.764 6.4063,-1.8125 z m -30.375,2.1562 c 0.8108,3.6188 3.0938,7.321 6.8437,8.4375 -2.311,5.1871 -3.5817,12.384 -9.875,14.156 1.6718,-7.4315 0.853,-16.226 2.1875,-22.938 l 0.75,-0.0937 0.094,0.4375 z m -297.31,3.9688 c 3.1377,0.12219 8.3111,2.1632 8.9063,4.9688 -2.1328,1.2402 -6.8312,5.0967 -7.2187,0.625 -0.3519,-1.4105 -3.0524,-4.6058 -1.6876,-5.5938 z m 34.844,8 c -4.4456,3.7905 -8.7495,12.663 -2.1875,16.531 1.8207,1.042 4.2549,0.90669 6.0313,0.78125 -0.7801,8.4363 11.173,14.291 16.781,7.625 2.3424,-2.4458 2.0074,-6.6831 5,-8.4375 3.5217,5.3314 11.278,3.4848 15.625,2.0625 -0.3162,2.1293 1.4833,4.8386 1.3438,6.1562 -5.8959,1.6996 -7.8771,10.22 -2.2188,13.625 3.7232,3.9594 11.522,3.964 14.875,4.4688 -4.7404,5.7302 1.0677,13.661 7.5312,14.469 7.1753,1.8116 14.973,-1.4492 21.781,1.4688 0.7347,0.006 -3.2456,2.021 -3.9375,3.625 -4.3488,5.9134 2.4966,12.68 8.6875,12.312 10.762,0.79915 21.438,-5.0414 26.344,-14.656 5.5357,0.965 11.413,-1.2676 16.75,-0.1875 -6.3953,1.5062 -15.422,-1.5391 -19.625,5.125 -1.5675,4.0597 0.5187,8.5986 4.0626,10.812 -5.5676,-0.53393 -13.074,4.0605 -11,10.438 -2.879,-7.2258 -13.352,-5.8086 -16.156,0.65625 -0.6927,3.3184 -5.0418,-0.24316 -7.5313,0.84375 -3.455,-0.30147 -6.4534,2.785 -7.9687,4.7188 -1.8784,-1.5578 -5.2863,0.0483 -6.5625,-0.9375 -0.4911,-4.0411 -0.6429,-9.037 -5.4062,-10.375 -8.9158,-2.0052 -18.626,1.0126 -26.281,5.5312 -3.0359,1.8426 -5.6824,4.5882 -7.6875,7.2812 -1.5871,-1.5083 -5.5565,-1.7357 -6.125,-2.5312 5.3491,-0.95289 13.194,-5.1488 10.438,-11.719 -3.6451,-8.7364 -15.883,-8.25 -22.531,-3.4062 -7.1247,4.3081 -9.9502,16.015 -18.125,16.75 3.3241,-6.7023 -3.3783,-14.866 -10.594,-12.781 -5.4297,0.95322 -8.0549,7.1266 -12.75,8.7188 -2.3164,-0.35445 -4.9419,-2.2041 -6.2813,-3.3438 4.6698,-3.8712 4.7736,-13.14 -2.1874,-14.406 -2.3074,-0.9231 -6.2884,1.218 -7.25,0.40625 1.9541,-6.0088 9.1315,-10.323 8.3437,-16.938 -2.7627,-8.3286 -15.508,-7.2265 -19.375,-0.34375 -5.5483,5.8222 -8.4185,14.402 -9.9375,21.594 -1.9684,-1.4361 -7.9836,-1.9874 -3.375,-4.375 4.619,-3.2523 6.1008,-11.766 -0.4375,-13.812 -2.5621,-1.3097 2.2361,-3.4627 3.1875,-4.6562 5.8237,-3.9362 15.715,-7.6192 14.906,-16.125 -1.8069,-7.3427 -11.35,-7.8036 -16.781,-4.7812 0.3492,-2.0067 -3.1524,-4.7833 0.75,-4.2812 6.6179,-0.77153 17.052,-1.3798 18.531,-9.625 0.6545,-4.5006 -5.1848,-7.454 -7.0937,-8.9688 4.626,-0.50115 10.601,-0.25294 14.344,1.3125 -3.1148,9.7504 4.8164,19.74 14.469,21 6.2804,2.3108 15.873,-2.2785 13.25,-9.9375 -0.4868,-1.7095 -1.9736,-3.1002 -3.0625,-4.1875 5.4894,1.0817 10.642,-3.3418 10,-9.0625 0.2133,-5.6145 6.8575,-6.4726 10.312,-9.4062 l -0.6703,0.7421 -0.2047,0.22665 z m 123.34,3.9688 c 6.537,5.3327 10.123,14.716 19.25,16.5 3.7108,1.3255 9.6274,0.0402 12.156,1.1875 -1.3557,1.6045 -0.4451,4.9484 -3.625,3.9062 -3.6896,-1.4095 -7.6687,1.2073 -11.062,-0.0937 -2.4854,-3.4493 -5.6632,-7.3764 -10.562,-6.5938 -2.8521,-0.33544 -7.8616,2.6072 -7.5625,-2.25 -0.6828,-3.7149 -5.921,-8.9124 -0.8437,-11.594 0.6925,-0.32722 1.4725,-1.2176 2.25,-1.0625 z m 161.47,0.65625 c 2.8855,2.3322 5.2809,5.944 9.2813,6.4062 -2.3625,1.0605 -10.976,1.74 -5.2226,4.1016 4.3884,3.3566 10.013,4.8482 14.91,6.6172 -8.2151,7.5463 -19.201,11.282 -29.594,14.781 -10.781,2.1405 -22.413,0.78845 -32.812,4.5625 -4.7402,-4.3823 -12.375,-3.5851 -18.164,-6.1382 -14.69,-3.9723 -29.694,-7.637 -44.711,-9.4243 0.9341,-2.6661 4.2201,0.9205 6.5,0.125 13.403,0.24139 26.597,-3.1428 38.081,-10.059 5.9831,-3.0686 13.076,-7.7725 18.638,-9.191 -2.9658,8.6 1.6541,19.298 11,21.156 13.434,3.3499 26.294,-7.2357 30.031,-19.656 0.6552,-0.82347 0.9895,-3.4193 2.0625,-3.2812 z m -185.8,28.2 c 2.6622,-0.1268 3.5927,0.70479 2.0625,3.0312 -0.7127,2.5597 -2.6958,1.6813 -1.9687,-0.8125 -0.024,-0.73027 -0.056,-1.5411 -0.094,-2.2188 z m -21.688,3.9688 c -1.9606,1.327 -6.9248,2.2835 -8.0625,2.125 2.5526,-1.1 5.3141,-2.0234 8.0625,-2.125 z m 287.47,0.84375 c 16.902,6.0352 34.256,12.362 48.75,23.094 4.6796,3.5747 9.7143,11.108 4.6563,16.469 -11.5,14.466 -29.689,20.848 -45.961,28.3 -57.779,23.168 -120.01,32.522 -181.59,39.39 -75.977,7.9027 -152.38,10.839 -228.7,13.091 -65.88,0.98817 -132.99,-0.80805 -196.63,-18.843 -14.58,-4.3792 -30.618,-13.791 -32.812,-30.281 -1.4676,-12.492 10.047,-20.677 19.156,-27.062 19.423,-12.64 41.134,-21.385 62.764,-29.625 14.336,-4.9832 28.873,-9.0551 43.642,-12.563 -0.9416,4.2354 -3.7328,7.0673 -7.8125,8 -5.0004,2.8046 -8.5169,8.3426 -15.051,7.5879 -9.845,0.63823 -19.128,6.4355 -23.138,15.527 -2.6444,3.9298 -4.653,8.3406 -7.7798,11.822 -14.67,2.6261 -30.247,15.391 -28.062,31.656 1.5944,6.1038 6.0697,11.116 7.5937,17.25 4.9207,8.809 15.891,10.244 25,10 19.393,2.87 38.548,7.6297 58.276,7.0222 41.675,1.4786 83.49,2.2339 125.13,0.69658 5.5855,-1.2548 8.0121,-9.9867 2.2187,-12.594 -10.931,-3.2562 -24.764,-2.6667 -34.344,-3.1562 9.1273,-2.2538 17.326,-8.7099 25.781,-11.25 3.3126,11.276 17.179,13.259 27.281,11.906 9.5923,-1.1593 20.856,-5.9488 23.719,-15.969 0.8558,-1.7888 -1.8204,-5.8021 1.5625,-4.3125 7.8731,0.54805 15.733,-2.4125 22.562,-6.0312 1.6111,-0.49023 2.5392,3.9235 4.5312,5.0312 6.2444,6.5391 16.684,6.7305 24.5,5.5938 2.4393,3.552 0.305,4.1191 -3.4646,3.8149 -13.655,1.1849 -28.209,0.0598 -41.035,5.1851 -5.6577,4.7295 0.7956,14.009 7.2813,12.375 41.072,1.9795 82.144,-1.9114 123.09,-4.7387 40.954,-3.4305 81.602,-9.5398 122.01,-16.918 7.4676,0.25557 14.622,-2.1523 21.063,-5.4688 8.4677,-2.0986 17.187,-4.3272 24.937,-8 10.835,7.5899 28.51,-1.1354 27.438,-14.812 -0.044,-3.1014 -1.458,-6.3235 -3.375,-8.5 9.7684,-5.7442 14.855,-20.989 5.9374,-29.656 -2.3369,-3.2905 -9.1849,-2.6119 -7.7812,-7.75 -0.199,-2.3535 -1.0986,-4.64 -2.4375,-6.6562 l 0.9459,0.32432 0.1478,0.0507 z m -219.62,6.1562 c 1.5174,0.66212 -3.8805,0.3769 0,0 z m 49,2.63 c 4.3866,0.824 13.199,1.9685 4.5625,1.5312 -1.2698,0.358 -7.5011,-0.16908 -4.5625,-1.5312 z m -316.94,1.2188 c -2.7315,5.4525 -6.0311,13.749 0.375,18.062 2.6339,1.9133 6.4277,1.9316 9.0625,0 -2.3451,5.3676 2.0016,12.791 8.2812,10.75 3.1808,-0.23647 7.1958,-5.3795 7.875,-5.1875 -3.3588,5.6197 2.6801,10.716 6.9688,13.562 2.7252,2.4277 2.1529,7.1648 6,8.8438 3.4146,2.6555 7.9313,1.7539 11.625,1.3125 4.6294,1.8187 11.108,-1.4403 14.75,2.1875 5.7899,7.9434 18.516,4.0109 24.094,12.031 1.8581,5.3408 -6.1143,6.329 -9.6563,6.875 -7.086,1.4576 -13.998,-0.18405 -21,-0.8125 -7.5689,1.1682 -14.226,6.1313 -22.125,6.125 -4.5119,0.30849 -11.692,1.6536 -13.031,-4.375 -3.6217,-5.3846 -10.358,-1.4769 -13.969,1.6562 -6.1028,2.3194 -12.446,5.5944 -19.188,4.625 -2.757,-4.4609 -9.4993,-9.2617 -14.062,-4.4062 -3.2664,2.142 -7.5856,2.7162 -11.188,1.9375 -0.1323,-7.8015 -9.6588,-12.667 -16.062,-8.2812 -3.4474,1.4156 -3.9565,6.3924 -6.25,7.8438 -4.1149,-0.0469 -9.9989,1.3037 -13.188,-0.3125 5.0587,-2.5659 7.9118,-10.972 1.75,-14 -2.6432,-1.539 -5.8458,-1.5395 -8.8125,-1.375 4.1428,-5.517 11.277,-3.8721 17.156,-3.5938 5.6109,0.44559 10.439,-5.6069 7.25,-10.875 -1.1171,-2.3847 -1.3431,-5.4281 2.1874,-4.9375 5.4455,-1.3244 10.423,-6.037 11.094,-11.438 4.3961,1.0288 8.1397,6.7037 13.25,3.8125 4.7713,-2.1924 6.2515,-8.0009 5.9688,-12.719 1.6931,-2.9571 5.2891,-2.5953 7.5,-0.875 8.0423,0.82117 10.45,-8.6936 10.969,-14.906 0.3524,-0.88972 1.4064,-1.4485 2.375,-1.5312 z m 340.4,2.9 c 5.0109,-0.9309 1.4878,2.6585 -0.5625,1.2812 -3.0338,-1.8737 -4.9787,-2.4031 0.069,-1.3646 l 0.5,0.08 z m -47.5,0.1875 c 1.8815,0.71359 4.9297,3.4185 1.1562,4.0625 -5.2202,3.1117 -9.283,8.101 -12.062,13.219 -1.8592,-0.90985 -6.4521,-1.3358 -3.7188,-3.7188 2.2718,-6.3044 7.8853,-12.353 14.625,-13.562 z m 167.47,1.5312 c -1.9127,3.2674 -2.6791,-0.71805 0,0 z m -242.75,2.9688 c -2.1846,0.89115 -6.4206,1.8654 -1.5626,0.28125 0.5111,-0.11765 1.0434,-0.22834 1.5626,-0.28125 z m 156.16,6.875 c 5.8505,0.31176 11.492,3.8429 14.844,8.6875 -10.294,-6.241 -23.051,-2.9477 -34.125,-1.9375 -2.5078,-0.67737 0.2737,-3.0677 1.9687,-2.9062 5.5994,-2.1782 11.244,-3.7464 17.312,-3.8438 z m 107,4.66 c -4.2617,3.6587 1.972,-3.0466 0,0 z m -450.34,-0.5625 c 0.3253,1.2745 -4.8593,2.8934 -1.125,0.53125 0.379,-0.12556 0.9481,-1.25 1.125,-0.53125 z m 283.97,0.9375 c -0.7711,0.63146 -8.8895,1.5386 -3.3666,0.53757 1.101,-0.21809 2.3025,-0.44155 3.3666,-0.53757 z m 136.25,11.812 c -1.8882,3.1358 0.1509,7.1145 1.4062,9.6875 -1.7339,0.79505 -5.4181,2.7594 -5.0312,-0.84375 0.2102,-1.9453 -3.0321,-4.992 -1.8125,-5.875 1.9513,-0.0869 4.625,-3.4546 5.4375,-2.9688 z m -130.03,5.0625 c 2.0683,12.46 -11.015,21.49 -21.75,23.562 -11.05,2.3623 -25.27,-0.80432 -31.313,-11.062 0.5516,-6.0497 6.4258,-11.814 12.718,-9.391 13.464,0.88971 27.651,-0.10829 40.345,-3.109 z m 54.906,1.0625 c 2.0641,1.3468 1.8153,5.3707 2.4375,7.75 0.3656,7.9442 -8.6705,10.603 -14.625,12.75 -8.8412,2.3404 -18.593,1.5197 -27.094,-1.875 2.0773,-4.1496 2.5474,-10.336 8.1314,-11.128 9.6441,-5.1055 20.286,-7.4432 31.15,-7.4965 z m 31.219,0.53125 c 2.7343,-0.67765 -0.173,3.8376 -1.625,1.5 -2.4474,-0.51384 -2.7789,-0.8309 0,-1.3438 0.5285,-0.11668 1.0803,-0.11225 1.625,-0.15625 z m -274.53,18.531 -0.125,-0.15625 0.125,0.15625 z m 0.094,0.125 c -0.2372,-0.078 0.2781,-0.55351 0,0 z m 0.094,0.0937 c -0.2743,0.0455 0.4144,-0.54544 0,0 z m 0.25,0.15625 -0.125,-0.0625 0.125,0.0625 z m -0.1875,0.21875 c -0.2236,-0.2422 0.2977,-0.25587 0,0 z m -0.1875,0.0937 -0.062,-0.21875 0.062,0.21875 z m -6.0938,0.78125 0.031,0 -0.031,0 z m 0.094,0.0625 c 1.0126,3.2269 3.3176,-0.77416 5.2812,0.1875 2.1882,-2.4894 -4.7654,0.2809 -5.2812,-0.1875 z m 125.06,0.75 c 2.0071,4.5967 5.9716,7.9159 9.9375,10.75 -9.7264,-0.26327 -20.368,0.83128 -29.156,-3.7812 -1.9512,-1.9282 -0.3829,-4.6292 2.2812,-4.4688 5.4277,-1.896 11.271,-2.1624 16.938,-2.5 z"
           id="path3051-97-4" />
        <path
           d="m 2132.7,301.82 c -48.259,13.615 -103.82,25.204 -138.67,64.076 -14.829,23.614 15.414,44.77 34.941,51.261 88.13,25.731 181.5,14.046 272.08,14.716 121.46,-4.9469 256.21,5.5766 360.14,-59.843 13.983,-6.6182 39.141,-24.548 23.768,-41.513 -13.338,-27.271 -71.557,-38.198 -95.184,-39.651 -4.8266,11.26 26.544,30.479 30.45,39.979 1.4351,11.004 -26.077,7.5669 -20.483,19.497 -1.4167,16.925 5.8438,16.186 -3.8335,22.673 -88.893,23.924 -182.44,31.058 -274.49,30.34 12.379,-4.9196 32.722,2.0457 40.746,-9.9674 0.39,-19.277 -30.272,-2.2904 -29.574,-21.797 -9.0932,-7.6539 -21.172,10.537 -32.75,5.4766 -13.522,-5.5819 -33.227,-11.931 -39.87,-7.1196 -11.215,10.608 0.1645,21.526 -9.2007,10.844 -11.865,0.53914 -105.34,15.223 -111.07,26.288 0.3865,7.2774 100.6,5.2799 84.997,5.6957 -55.81,0.0623 -113.75,4.4191 -167.8,-11.172 -17.166,-11.032 -7.6418,-35.75 9.7483,-39.87 13.669,-10.49 20.085,-27.253 38.884,-30.669 10.713,-7.4586 76.925,-7.9864 77.001,-37.241 -0.8776,-1.173 -48.453,7.6293 -49.837,7.9959 z m 188.4,101.65 0.3286,-0.10953 z m -6.2433,0.3286 c 0.2196,0.15835 0.3751,0.0887 0,0 z m 0.219,0.10953 c 3.0107,1.9022 9.443,-2.4722 0,0 z"
           inkscape:connector-curvature="0"
           style="color:#000000;fill:#dff0fe;fill-opacity:1"
           sodipodi:nodetypes="cccccccccccccccccccccccccccccc"
           id="path5159" />
        <path
           inkscape:connector-curvature="0"
           style="fill:#000000"
           d="m 2447.3,191.01 c -5.3432,0.039 -11.54,3.5077 -19.01,10.336 -7.972,7.2867 -12.029,9.3229 -18.646,9.3229 -4.6711,0 -9.7282,-4.7243 -9.7282,-9.0797 0,-3.6202 -5.0656,-9.0797 -8.4311,-9.0797 -11.572,0 -22.433,11.932 -20.794,22.861 0.7349,4.9019 0.5327,5.6885 -1.4999,5.7559 -1.2921,0.042 -5.1776,0.5264 -8.6338,1.0944 -5.5539,0.9128 -6.7165,0.6779 -9.9308,-2.0267 -16.844,-14.174 -42.618,-9.9944 -67.165,10.863 -9.0297,7.6723 -13.527,13.734 -14.471,19.538 -0.7015,4.3162 -1.5544,5.1325 -9.2013,8.877 l -8.3906,4.0939 -5.1884,-5.2289 c -6.2578,-6.3389 -11.595,-8.7554 -19.335,-8.7554 -8.4734,0 -12.843,4.0278 -12.687,11.796 l 0.1215,5.8369 -11.552,1.4592 c -6.3683,0.8039 -13.215,2.2508 -15.2,3.2023 -5.1323,2.4599 -4.8691,7.3207 0.5676,10.742 2.291,1.4415 4.1882,3.0456 4.2156,3.567 0.1013,1.9249 -6.8234,2.6003 -11.714,1.135 -5.8008,-1.738 -17.25,-0.6107 -38.913,3.8102 -77.283,15.773 -143.48,46.149 -156.5,71.827 -10.228,20.168 2.1309,45.713 28.171,58.207 23.717,11.379 76.194,20.765 134.9,24.118 62.193,3.5518 216.93,-2.3748 302.87,-11.593 102.91,-11.038 189.21,-33.909 228.45,-60.558 30.581,-20.767 28.011,-44.64 -6.7693,-62.788 -19.246,-10.042 -42.114,-17.079 -68.868,-21.24 -7.7275,-1.2019 -14.216,-2.3584 -14.43,-2.5537 -0.2143,-0.1952 -0.6483,-3.5709 -0.9729,-7.4988 -0.7145,-8.6468 -3.4374,-16.744 -7.904,-23.51 l -3.324,-5.0263 2.7159,-5.4721 c 5.3018,-10.616 2.6713,-20.288 -7.5394,-27.685 -9.1467,-6.6258 -20.353,-8.0814 -35.427,-4.6209 -3.2041,0.7356 -3.567,0.4718 -3.567,-2.6347 0,-7.8275 -6.7684,-14.21 -18.484,-17.389 -7.1342,-1.936 -12.144,-0.016 -24.888,9.485 -10.68,7.9625 -17.798,10.97 -22.091,9.3229 -1.0463,-0.4016 -3.4017,-3.7726 -5.2693,-7.4583 -4.4416,-8.7649 -9.4284,-13.096 -15.484,-13.052 z m 63.963,5.2694 c 1.9684,0.047 3.9097,0.6427 6.2827,1.6619 10.46,4.4923 12.754,8.6858 9.4445,17.389 -2.2179,5.8332 0.015,6.4664 11.147,3.1617 6.4342,-1.9101 11.88,-2.7121 15.444,-2.3105 6.8205,0.7688 17.002,5.6995 20.267,9.8498 2.7007,3.4335 3.3103,11.784 1.135,15.849 -1.6974,3.1713 -2.303,3.0869 -7.2557,-0.8512 -7.4045,-5.8875 -17.964,-8.8099 -32.144,-8.9175 -11.892,-0.09 -12.908,-0.2982 -13.863,-2.878 -1.3728,-3.7108 -4.9383,-4.6719 -13.457,-3.6075 l -7.0934,0.8918 -2.1889,-4.6209 c -4.7916,-10.048 -15.65,-8.5079 -23.186,3.2832 -4.38,6.8539 -7.6894,8.8365 -14.714,8.8365 -6.5528,0 -10.579,-3.0503 -10.579,-7.9447 0,-5.6624 -3.1983,-10.91 -7.7826,-12.809 -5.7334,-2.3749 -9.3869,-0.2505 -13.822,8.0257 -3.3882,6.3227 -4.1175,6.9165 -8.7554,7.2962 -3.3262,0.2724 -7.5459,-0.7095 -12.322,-2.8374 -3.995,-1.7799 -11.956,-3.9533 -17.714,-4.8236 -9.6497,-1.4585 -10.626,-1.8445 -12.16,-5.3099 -2.2919,-5.1779 0.1309,-10.698 6.5666,-14.957 6.0703,-4.0172 8.3897,-3.2739 10.134,3.2022 0.7395,2.746 3.0978,6.6746 5.2695,8.7554 3.3466,3.2063 5.0013,3.7982 10.742,3.7697 8.2208,-0.041 12.684,-2.2773 22.942,-11.431 4.3004,-3.837 9.3329,-7.3577 11.187,-7.8231 4.7288,-1.1868 8.946,1.9432 12.809,9.5661 7.1739,14.157 15.015,13.89 35.711,-1.216 9.2165,-6.727 13.626,-9.305 17.957,-9.2013 z m -72.516,20.186 c 0.9859,-0.032 2.0755,0.398 3.3238,1.216 2.4166,1.5834 3.2427,3.2345 3.2427,6.526 0,10.478 6.5499,15.896 17.754,14.633 7.1995,-0.8115 11.435,-3.6889 15.646,-10.66 5.8085,-9.6164 12.471,-10.986 17.308,-3.5671 l 3.2021,4.8642 9.6472,0 c 7.9115,0 9.7476,0.3692 10.093,2.1077 0.3213,1.6176 -1.7959,2.8067 -8.8363,4.9452 -5.0828,1.5437 -14.226,5.4315 -20.348,8.6338 l -11.147,5.7964 -3.4454,-3.2833 c -4.076,-3.905 -8.5877,-4.1908 -17.227,-1.0944 l -6.1612,2.1888 -5.0667,-4.9046 c -5.1655,-5.0439 -9.457,-5.8404 -10.215,-1.9051 -0.2669,1.385 0.7866,2.3359 3.2022,2.8374 2.0664,0.4291 4.7649,2.4546 6.2423,4.702 3.4751,5.2863 4.8145,5.5825 11.309,2.6347 7.2939,-3.3107 13.49,-3.3517 15.241,-0.081 1.5017,2.806 0.9714,3.553 -8.1474,11.025 -3.0435,2.4938 -8.7521,6.0103 -12.647,7.8231 -3.8945,1.8128 -8.6581,3.2833 -10.62,3.2833 -3.3415,0.012 -3.567,-0.3156 -3.567,-5.5532 0,-6.806 -4.726,-19.273 -10.458,-27.604 l -4.2561,-6.1612 3.3239,-2.7158 c 1.8168,-1.4872 4.5019,-5.0434 5.9585,-7.9447 2.6893,-5.3571 4.4787,-7.6714 6.6476,-7.742 z m -111.59,2.1888 c 0.8821,0.016 1.7538,0.063 2.5942,0.1622 7.7151,0.9138 16.984,4.5965 16.984,6.7286 0,0.8958 -2.6836,2.6405 -5.9586,3.8913 -5.1544,1.9685 -6.9412,2.071 -13.295,0.7296 -5.1952,-1.0967 -8.3826,-1.1521 -10.863,-0.2026 -3.6719,1.4055 -7.4988,7.331 -7.4988,11.593 0,4.9303 -3.3589,6.0668 -10.904,3.6886 -8.3372,-2.6286 -7.9168,-2.6222 -10.417,-0.1216 -2.6283,2.6287 -2.6638,12.704 -0.081,20.024 1.0701,3.033 1.9206,5.8779 1.9052,6.3233 -0.016,0.4453 -2.6488,2.5618 -5.8775,4.702 -9.4963,6.2945 -13.212,14.548 -7.4989,16.741 2.6422,1.0138 4.3372,-0.1671 4.3372,-3.0806 0,-4.3185 15.588,-15.013 20.51,-14.065 1.5057,0.2899 0.6609,1.2836 -2.7969,3.3238 -8.9546,5.2835 -3.463,8.9124 6.3233,4.1751 7.1162,-3.445 8.5144,-5.8794 8.9176,-15.484 0.3426,-8.1572 2.2062,-11.583 10.701,-19.74 6.4761,-6.2189 20.79,-14.335 25.739,-14.592 2.1402,-0.1113 5.3505,-1.1392 7.134,-2.3104 1.7835,-1.1713 8.1589,-2.8325 14.187,-3.6481 19.882,-2.6898 35.344,1.0175 46.655,11.187 10.401,9.3512 18.513,29.059 14.146,34.373 -0.9415,1.146 -5.983,3.4378 -11.187,5.0668 -11.592,3.6284 -13.533,2.9671 -20.875,-6.9719 -2.8889,-3.9103 -5.8718,-7.5058 -6.6476,-7.9852 -0.9662,-0.5972 -0.8217,-1.5328 0.4864,-2.9995 1.0503,-1.1775 2.5604,-4.6411 3.3643,-7.661 1.6022,-6.0175 4.3038,-8.1069 10.377,-8.1069 5.232,0 5.202,2.9642 -0.041,10.093 -4.9173,6.6866 -4.6482,10.755 0.7702,12.525 4.958,1.6197 4.6686,1.3813 5.0667,4.094 0.5177,3.5262 3.2138,3.6906 4.4994,0.2837 1.3828,-3.6646 -0.1639,-7.0563 -3.7292,-8.1879 -3.3779,-1.0722 -3.2723,-2.3771 0.6485,-8.1474 3.6663,-5.3952 4.2191,-12.141 1.2161,-14.633 -2.6764,-2.2213 -11.992,-2.1341 -16.822,0.1621 -2.8488,1.3543 -4.4006,3.4958 -5.9181,8.0663 -2.514,7.5733 -3.8992,9.0326 -7.8635,8.4717 -2.3527,-0.3328 -3.1089,-1.3127 -3.3644,-4.2966 -0.7237,-8.4497 -2.9849,-13.587 -6.8098,-15.565 -4.9035,-2.5354 -14.21,-2.4861 -17.876,0.081 -3.4556,2.4205 -3.5854,5.2014 -0.6891,14.39 3.3242,10.545 -1.7219,13.015 -7.2962,3.5671 -2.9313,-4.9682 -7.7425,-5.9077 -12.647,-2.4726 -5.9674,4.1796 -8.8641,20.105 -3.648,20.105 1.4146,0 1.9456,-1.5757 1.9456,-5.918 0,-4.5237 0.7288,-6.6064 3.1617,-9.0391 3.7488,-3.749 6.3791,-3.1227 8.5122,2.0267 2.1432,5.1744 9.1676,7.5239 13.66,4.5804 3.7369,-2.4485 3.9617,-5.4127 1.1756,-14.795 -1.1026,-3.7123 -1.6472,-7.3282 -1.2161,-8.0258 0.4312,-0.6976 3.3578,-1.2565 6.4855,-1.2565 6.9405,0 9.7282,3.1737 9.7282,11.106 0,3.4198 0.8756,6.387 2.4726,8.2285 l 2.5132,2.8779 -6.5261,6.2828 c -6.2881,6.0611 -6.4745,6.5121 -6.0396,12.566 l 0.4459,6.2423 -7.0123,2.2699 c -3.8512,1.236 -7.9619,3.1306 -9.1609,4.2156 -2.3193,2.0992 -5.0021,2.4757 -8.3905,1.1755 -1.5826,-0.6073 -1.9127,-1.8258 -1.2971,-5.1073 0.6688,-3.5649 0.232,-4.9156 -2.6348,-7.7826 -2.9964,-2.9966 -4.2654,-3.3937 -9.2012,-2.8374 -6.8732,0.7746 -19.445,6.6591 -20.591,9.6471 -0.4542,1.1838 0.056,3.0148 1.135,4.094 1.7388,1.7389 2.8019,1.5282 9.9309,-2.1483 8.5556,-4.4126 10.891,-4.9418 12.241,-2.7563 0.9868,1.5964 -2.934,6.4044 -5.2288,6.4044 -0.8534,0 -4.3068,1.4592 -7.6609,3.2427 -3.3544,1.7835 -8.1204,3.2427 -10.58,3.2427 -5.3704,0 -6.0278,2.775 -1.1756,4.9857 5.2724,2.4024 13.046,1.7506 21.443,-1.7835 6.8096,-2.866 8.4613,-3.1303 13.012,-1.9051 2.8635,0.7712 5.5591,2.3391 5.9991,3.486 1.6456,4.2886 -10.64,10.737 -20.551,10.782 -6.8864,0.031 -8.657,1.8561 -4.4994,4.5803 2.7726,1.8166 5.0395,2.0826 11.39,1.4187 5.0089,-0.5235 8.5333,-0.3233 9.6067,0.5675 1.2483,1.0361 2.5015,0.8643 4.6613,-0.6485 6.2271,-4.3615 17.83,-1.4613 16.092,4.0129 -0.9625,3.0324 -4.2855,5.0117 -12.444,7.4177 -3.2917,0.9708 -5.8369,2.51 -5.8369,3.5265 0,1.2219 1.8804,1.9207 5.8369,2.1483 7.23,0.4159 14.958,-3.6628 18.524,-9.7687 2.1223,-3.6336 2.2825,-4.8067 0.9323,-8.0663 -1.3447,-3.2463 -1.2411,-4.4426 0.8107,-7.9448 3.0031,-5.1256 10.362,-11.094 15.079,-12.241 3.0651,-0.7456 3.567,-0.4822 3.567,1.9457 0,4.2015 -7.1082,13.731 -11.633,15.606 -2.4317,1.0072 -3.9318,2.5905 -3.9318,4.094 0,2.2424 0.7265,2.3496 8.9986,1.5808 14.516,-1.3491 22.084,3.5113 14.998,9.6066 -2.7645,2.3779 -4.9534,2.9185 -11.755,2.9185 -6.0937,0 -8.3501,0.4437 -8.3501,1.7024 0,2.105 4.606,4.7129 10.498,5.918 5.5656,1.1384 6.5855,4.8374 1.824,6.6476 -1.8819,0.7155 -6.8724,1.2971 -11.106,1.2971 -6.5482,0 -7.7015,0.3245 -7.7015,2.3105 0,1.2841 0.6512,3.0021 1.4593,3.8102 2.1861,2.1861 0.3433,5.5334 -3.0402,5.5127 -5.309,-0.032 -8.5522,-1.458 -9.2418,-4.094 -0.8446,-3.2307 -5.1782,-2.6895 -5.8369,0.7296 -0.2555,1.3281 0.7932,4.1088 2.3105,6.1612 3.2448,4.3889 1.0298,5.0652 -3.2833,1.0134 -3.1985,-3.005 -12.711,-4.8414 -14.025,-2.7158 -0.4596,0.7435 1.5138,2.6465 4.3777,4.2561 6.0072,3.3762 6.6468,5.8986 1.905,7.7015 -6.2854,2.3897 -13.538,-0.8485 -13.538,-6.0396 0,-3.4915 -2.7377,-4.0881 -5.1884,-1.135 -2.4043,2.897 0.5282,8.8805 5.7153,11.674 4.1814,2.2525 13.739,2.3054 19.051,0.081 1.5955,-0.6681 2.2978,0.099 2.9184,3.2022 0.4478,2.2394 2.0565,5.783 3.5671,7.9042 1.5103,2.1213 2.5056,4.1422 2.1887,4.4588 -0.3166,0.3167 -9.5941,1.1254 -20.591,1.824 -23.681,1.5043 -31.009,2.4002 -31.009,3.8102 0,2.2556 13.535,2.6429 49.736,1.3782 66.745,-2.3315 141.47,-10.23 184.31,-19.497 6.3871,-1.3816 14.639,-2.5131 18.321,-2.5131 4.6831,0 7.6734,-0.7778 9.931,-2.5536 1.7752,-1.3965 7.0239,-3.1485 11.674,-3.8913 4.6501,-0.7429 11.152,-2.8469 14.471,-4.702 5.6843,-3.1771 6.2197,-3.2508 9.2013,-1.2971 5.2913,3.467 11.611,2.6574 15.484,-1.9456 3.6542,-4.3427 4.0875,-6.4858 2.0268,-10.336 -2.0812,-3.8888 -3.8508,-2.9857 -3.8508,1.9862 0,3.3756 -0.8231,5.0218 -3.2427,6.6071 -4.0803,2.6736 -7.6294,1.5774 -6.4855,-2.0267 0.5507,-1.7353 0.1385,-2.885 -1.216,-3.4049 -2.806,-1.0767 -2.4868,-3.0889 1.216,-7.6204 2.1676,-2.6528 4.4199,-3.9128 7.2151,-4.0534 5.2924,-0.2662 10.341,-4.0344 13.255,-9.8904 3.3569,-6.746 0.7665,-12.68 -6.8502,-15.727 -4.7786,-1.912 -5.3471,-2.5776 -4.6615,-5.3099 1.8772,-7.4787 -4.752,-12.932 -14.876,-12.201 -3.8904,0.2809 -5.7876,-0.1508 -6.4044,-1.4998 -0.4808,-1.0514 -1.8659,-3.9044 -3.0806,-6.3234 l -2.1889,-4.3777 5.837,0.7702 c 13.601,1.8641 56.379,17.959 71.016,26.712 9.029,5.3992 16.619,14.874 16.619,20.754 0,16.259 -35.193,36.788 -90.999,53.1 -71.73,20.966 -155.71,31.012 -314.99,37.697 -76.346,3.2042 -131.05,2.6399 -172.23,-1.824 -70.827,-7.678 -104.82,-18.047 -115.77,-35.305 -14.214,-22.414 -5.1443,-38.69 32.387,-57.964 28.743,-14.761 52.302,-23.522 85.689,-31.9 16.111,-4.0428 52.181,-11.674 55.127,-11.674 0.352,0 0.6485,1.1138 0.6485,2.5131 0,1.8761 -1.3942,2.9289 -5.2694,3.9723 -5.7698,1.5537 -8.0925,5.1922 -6.3234,9.8904 0.5768,1.5319 0.6732,3.137 0.2432,3.567 -1.5263,1.5264 -2.99,0.7552 -4.0939,-2.1483 -0.8658,-2.2775 -2.8883,-3.3239 -8.9175,-4.6615 -11.358,-2.5197 -16.992,-0.1412 -19.821,8.4312 -1.0637,3.2234 -2.7279,4.9556 -6.2018,6.4044 -2.6148,1.0906 -6.4935,3.639 -8.6337,5.6748 -3.0287,2.8808 -5.1413,3.7346 -9.5256,3.7696 -7.9669,0.063 -17.362,4.961 -19.01,9.9309 -0.7134,2.1509 -2.5881,5.1928 -4.1751,6.7692 -1.587,1.5764 -3.2753,4.3534 -3.7291,6.1612 -0.5447,2.1706 -1.9954,3.5619 -4.2561,4.0535 -18.993,4.1303 -30.548,20.088 -22.213,30.684 1.4268,1.8138 2.5942,3.9684 2.5942,4.783 0,3.1696 3.8544,8.6983 7.0935,10.174 1.8704,0.8522 6.5309,1.5808 10.377,1.5808 3.8459,0 10.989,0.9328 15.849,2.0673 20.761,4.8466 37.589,5.9182 101.86,6.6071 34.766,0.3725 64.836,0.2903 66.8,-0.2027 8.6831,-2.1793 -2.8304,-3.5302 -36.724,-4.2561 -19.622,-0.4201 -35.944,-1.2017 -36.278,-1.743 -0.3347,-0.5414 3.0755,-2.2163 7.5393,-3.7291 4.464,-1.5128 9.5208,-3.5323 11.268,-4.4993 2.7208,-1.5054 3.6205,-1.4747 6.2423,0.2432 2.496,1.6354 4.0826,1.7492 8.5122,0.608 9.3322,-2.4043 20.707,-6.7249 22.861,-8.6743 1.1355,-1.0277 5.8365,-3.2362 10.458,-4.9047 7.0171,-2.5333 8.3904,-3.4839 8.1473,-5.7964 -0.2298,-2.1856 1.4763,-3.7507 8.1475,-7.4177 8.0639,-4.4325 8.642,-4.5366 12.241,-2.6753 4.7753,2.4686 10.876,2.5078 12.89,0.081 1.2881,-1.5522 0.6943,-2.1359 -3.567,-3.2833 -6.4746,-1.7434 -8.7094,-4.182 -6.8908,-7.5799 1.2003,-2.2429 3.8522,-3.6652 10.863,-5.918 3.2759,-1.0527 2.7709,-3.2884 -1.0538,-4.7425 -5.9557,-2.2643 -15.801,3.9739 -18.078,11.471 -0.6243,2.0549 -3.4662,4.2499 -8.8771,6.8097 -13.13,6.2117 -22.491,4.3389 -13.944,-2.7968 4.736,-3.9539 4.9869,-8.0764 0.527,-8.7149 -1.9226,-0.2751 -3.9075,1.0354 -6.4449,4.2156 -3.003,3.7636 -4.5533,4.6209 -8.3907,4.6209 -2.6,0 -5.431,-0.8705 -6.3233,-1.9457 -0.8881,-1.0701 -2.931,-1.9456 -4.5398,-1.9456 -1.6088,0 -3.7114,-0.9628 -4.6615,-2.1078 -1.4899,-1.7953 -1.1683,-2.5534 2.432,-5.5126 5.3002,-4.3559 5.618,-7.3548 0.6081,-5.9586 -6.8817,1.9178 -10.027,1.4465 -10.458,-1.5808 -0.4557,-3.2002 3.9111,-12.588 7.8636,-16.903 2.4269,-2.6494 2.4873,-2.9863 0.446,-3.7696 -4.1731,-1.6014 -8.242,1.76 -12.444,10.296 -3.1457,6.3898 -4.0161,9.6995 -3.6887,14.025 0.3762,4.9695 0.1005,5.7308 -2.3509,6.0801 -1.6999,0.2423 -3.5343,-0.6837 -4.7019,-2.351 -1.0553,-1.5067 -3.5722,-3.1993 -5.5533,-3.7291 -1.9812,-0.5299 -4.428,-2.2376 -5.472,-3.8102 -1.7774,-2.6768 -1.5971,-3.1265 2.9994,-7.3367 4.4194,-4.0481 4.6642,-4.6052 2.432,-5.4316 -3.1686,-1.173 -4.3935,-2.9842 -4.4181,-6.5666 -0.02,-2.868 6.7825,-8.8555 15.443,-13.62 4.9475,-2.7213 5.3203,-6.2017 0.6892,-6.2017 -4.4382,0 -12.532,4.294 -18.767,9.9309 l -5.1479,4.6209 -3.6075,-3.7292 c -1.9875,-2.0413 -4.7263,-4.3078 -6.0803,-5.0667 -1.6871,-0.9457 -2.1618,-2.1498 -1.5401,-3.7697 0.8265,-2.1545 1.1173,-2.1745 3.1615,-0.3243 2.0394,1.8453 2.7597,1.7991 8.0664,-0.3648 3.2103,-1.309 6.8584,-2.6794 8.1068,-3.0806 3.2568,-1.0465 2.7971,-3.2687 -0.9728,-4.702 -1.7835,-0.6781 -3.2427,-1.8672 -3.2427,-2.6347 0,-2.151 8.6148,-5.2746 17.268,-6.2423 8.3167,-0.9298 10.848,-3.2467 5.8369,-5.3505 -3.8978,-1.6365 -12.13,-8.8664 -11.188,-9.8093 0.3975,-0.3975 4.3282,-1.4061 8.7554,-2.2293 6.1297,-1.1394 9.7984,-1.1266 15.362,0.041 8.999,1.8875 10.686,0.7331 7.4989,-5.1884 -1.2583,-2.3383 -2.0677,-6.0072 -1.8241,-8.1474 0.3829,-3.3632 1.0472,-3.9759 4.8237,-4.3371 5.546,-0.5305 10.557,1.565 15.038,6.2422 l 3.5264,3.6887 -2.8778,3.8912 c -1.9087,2.5814 -4.7606,4.3755 -8.4717,5.31 -13.767,3.4666 -12.362,18.597 1.905,20.51 6.8812,0.9231 7.2711,-2.1229 0.7702,-5.9585 -2.4969,-1.4732 -4.5398,-3.5902 -4.5398,-4.702 0,-2.7641 5.8939,-4.7881 11.106,-3.8102 4.2036,0.7887 4.3003,0.7156 4.7019,-4.1345 0.3598,-4.3447 1.2812,-5.5714 7.4177,-9.8498 10.188,-7.1025 20.251,-8.4157 18.686,-2.432 -0.3823,1.462 -2.9834,5.2407 -5.7559,8.3905 -5.769,6.5539 -6.4733,9.2049 -2.1078,7.8232 7.2756,-2.3027 12.747,-9.0413 13.62,-16.781 0.5115,-4.5374 0.1348,-5.9841 -2.1078,-7.9042 -4.5345,-3.8826 -3.4531,-7.749 4.6209,-16.214 13.521,-14.176 31.155,-23.222 44.385,-22.983 z m -3.9318,15.444 c 4.9198,0.067 4.1024,2.6737 -2.3916,8.5121 -7.633,6.8628 -13.076,14.746 -14.268,20.591 -0.7266,3.5624 -1.2994,3.901 -6.7286,4.2561 -5.4457,0.3561 -6.0253,0.091 -7.3367,-3.2427 -2.4886,-6.3265 -3.2006,-12.974 -1.4998,-14.025 0.8612,-0.5322 4.6674,-0.2235 8.4717,0.6891 8.8608,2.1257 13.002,-0.045 14.187,-7.4583 1.1398,-7.1327 2.3616,-8.7349 7.0935,-9.2012 0.9359,-0.092 1.7698,-0.1312 2.4725,-0.1216 z m 213.45,6.6881 c 6.6015,-0.1067 13.159,0.6737 16.619,2.3105 4.2216,1.9967 4.7782,4.4935 0.7702,3.4454 -3.0317,-0.7928 -8.6988,1.6617 -11.39,4.9046 -1.8399,2.2171 -5.2694,2.7386 -5.2694,0.8107 0,-0.6624 -0.9638,-2.1392 -2.1078,-3.2833 -1.7149,-1.7149 -3.7848,-1.9456 -11.836,-1.216 -8.0116,0.726 -9.6512,0.5793 -9.1607,-0.8918 0.3288,-0.9863 4.0439,-2.8595 8.2689,-4.175 3.7987,-1.1827 8.9714,-1.8221 14.106,-1.9051 z m -31.13,5.2289 3.6076,3.8508 c 3.4499,3.6931 3.9874,3.8389 13.011,3.4048 l 9.4039,-0.4458 0.4054,3.8913 c 0.2333,2.1402 0.9591,4.385 1.5808,5.0262 1.255,1.2938 6.3961,-1.5932 11.836,-6.6476 2.8722,-2.6688 4.9256,-3.2581 12.12,-3.486 8.3893,-0.2657 8.7349,-0.1465 11.876,3.9724 7.8588,10.303 -4.5422,22.254 -13.295,12.809 -2.1373,-2.3061 -4.3681,-3.2427 -7.7014,-3.2427 -6.243,0 -9.2239,1.7663 -10.296,6.1206 -0.4876,1.9807 -2.3026,6.0715 -4.0534,9.0797 -2.41,4.1408 -4.4367,5.8237 -8.269,6.9719 -8.0778,2.4201 -9.6548,1.0966 -8.4716,-6.9719 0.547,-3.7303 1.0493,-8.8121 1.135,-11.309 l 0.1621,-4.5399 -6.9719,0.1622 c -7.0476,0.193 -7.4015,0.3588 -35.184,14.876 -4.2531,2.2225 -11.062,4.3191 -16.862,5.1884 -11.782,1.7657 -16.054,3.2576 -14.836,5.2289 1.3763,2.2269 19.424,0.5558 27.563,-2.5536 3.8048,-1.4537 11.053,-5.1433 16.092,-8.188 9.9308,-6.0002 21.825,-10.618 23.388,-9.0796 0.537,0.5282 0.3562,4.3524 -0.4053,8.4716 -1.1591,6.2698 -1.0644,8.0057 0.6485,10.62 2.4286,3.7064 6.8861,5.0252 12.93,3.8913 6.6379,-1.2452 11.132,-5.5298 15.241,-14.592 2.0412,-4.5019 4.2162,-8.1879 4.8641,-8.1879 0.6479,0 2.088,-0.3581 3.1618,-0.7702 1.1899,-0.4566 3.3444,0.8093 5.5126,3.2427 2.8221,3.1675 4.5788,4.0129 8.5933,4.0129 5.1817,0 9.2407,-1.5798 12.525,-4.8641 1.6102,-1.6102 2.0315,-1.5998 3.0401,0.2027 0.639,1.1427 0.9889,4.557 0.7701,7.5799 -0.396,5.468 -0.435,5.4925 -6.2423,6.2017 l -5.8369,0.7296 4.4588,1.2971 c 2.4484,0.711 4.6776,2.0345 4.9856,2.959 0.9299,2.7898 -12.316,14.228 -18.322,15.808 -2.9593,0.7788 -7.1615,2.436 -9.3227,3.6886 -5.6465,3.272 -9.9173,4.1316 -25.618,5.1884 -10.515,0.7077 -14.352,1.4608 -15.565,3.04 -0.8855,1.1529 -5.3629,3.3344 -9.9715,4.8641 -4.6085,1.53 -9.9542,3.9007 -11.876,5.2695 -4.1709,2.97 -3.543,3.025 -8.0663,-0.4864 -3.1151,-2.4182 -5.2943,-2.8374 -14.633,-2.8374 -10.186,0 -10.978,-0.1741 -10.377,-2.4726 0.454,-1.7343 -0.9334,-3.9728 -4.702,-7.4178 -2.9642,-2.7095 -5.0484,-5.2878 -4.6209,-5.7153 0.4274,-0.4274 12.142,1.3114 26.023,3.8508 25.243,4.6181 35.02,5.6344 32.671,3.4454 -1.1391,-1.061 -23.093,-7.0101 -41.426,-11.228 -4.2804,-0.9848 -12.309,-2.1901 -17.835,-2.6753 -6.525,-0.5728 -10.618,-1.5578 -11.674,-2.8374 -0.9933,-1.2038 -1.1168,-2.1522 -0.3243,-2.432 8.2222,-2.9023 10.605,-8.6499 4.7831,-11.552 -4.7128,-2.3495 -3.3298,-3.6406 5.7153,-5.3099 11.548,-2.1314 20.224,-6.3952 31.657,-15.565 11.841,-9.4972 18.849,-13.994 26.874,-17.146 l 6.1206,-2.3915 z m -118.68,23.024 c 2.8582,-0.1329 5.4825,2.167 9.2418,7.2556 6.2336,8.4381 12.037,11.502 19.416,10.255 3.6953,-0.6243 6.2799,-0.1203 10.539,2.0673 l 5.6343,2.8779 -4.2155,1.743 c -4.1445,1.7088 -4.7566,2.7339 -4.2967,7.2556 0.1995,1.9608 -0.9598,2.2544 -8.5932,2.2699 -4.8604,0.01 -10.004,0.3179 -11.431,0.6891 -1.928,0.5015 -3.1881,-0.3914 -4.9045,-3.4454 -2.2525,-4.0075 -2.4808,-4.0731 -9.2014,-3.2833 l -6.8908,0.8107 -1.6214,-5.5126 c -0.8985,-3.025 -2.4089,-6.9314 -3.3238,-8.7149 -2.0659,-4.0275 -0.7881,-7.7989 3.9318,-11.512 2.1873,-1.7205 4.0004,-2.6766 5.7154,-2.7563 z m -15.282,27.361 c 2.5315,-0.01 2.4165,3.4237 -0.3243,10.417 -3.4052,8.6892 -3.7688,8.9737 -9.6065,7.742 -3.4809,-0.7344 -3.9702,-1.4351 -4.5803,-6.6476 -0.3754,-3.205 -1.1304,-6.4888 -1.662,-7.3367 -1.5214,-2.4269 2.9587,-4.2821 6.4855,-2.6753 2.2376,1.0195 3.8631,0.9302 6.2827,-0.3648 1.434,-0.7674 2.5611,-1.1326 3.4049,-1.1349 z m 218.93,5.0667 c 2.2785,0 4.2347,4.032 3.567,7.4178 -1.743,8.8372 -1.8018,8.7732 2.6348,9.2013 2.3362,0.2253 5.5259,-0.4951 7.134,-1.6214 3.3319,-2.3337 10.819,-2.7123 12.12,-0.608 1.1889,1.9237 -3.3967,7.88 -7.661,9.9714 -3.9324,1.9285 -4.5404,5.2074 -1.1755,6.2828 1.2485,0.399 3.5497,1.3422 5.1479,2.1078 2.2444,1.075 3.4254,0.9471 5.1884,-0.5675 3.8445,-3.3029 7.0146,-3.8258 10.255,-1.7024 4.1769,2.7367 3.8587,5.302 -1.3375,10.498 -5.6079,5.608 -7.911,5.5512 -10.661,-0.2432 -3.1699,-6.6799 -9.0645,-8.3565 -17.673,-5.0262 -1.8586,0.719 -2.2699,0.1693 -2.2699,-3.0806 0,-5.788 -2.435,-10.206 -6.5666,-11.917 -6.1231,-2.5362 -15.144,1.996 -18.078,9.0797 l -1.6213,3.9318 -4.5803,-4.0534 c -3.7069,-3.2542 -5.3716,-3.873 -8.7554,-3.3238 -4.7347,0.7682 -7.0936,-0.9271 -7.0936,-5.0668 0,-3.3556 1.9003,-5.0582 7.0124,-6.2828 4.1799,-1.0011 5.8857,0.5943 5.9181,5.4316 0.012,1.7038 0.8243,2.9184 1.9457,2.9184 2.2032,0 3.9602,-5.4557 2.7563,-8.5932 -1.0071,-2.6239 1.3583,-5.6748 4.4181,-5.6748 1.3743,0 2.6271,1.3149 3.1211,3.2833 0.4537,1.8077 2.3039,3.9269 4.094,4.7425 2.6861,1.2238 3.6386,1.0906 5.4721,-0.7702 2.0982,-2.1292 2.1028,-2.3406 -0.041,-3.9318 -1.2485,-0.9268 -2.2699,-2.5822 -2.2699,-3.6886 0,-1.9742 6.9581,-8.7149 8.9986,-8.7149 z m -185.04,7.7826 c 0.8453,-0.014 1.7879,0 2.8375,0 14.267,0 14.928,0.5526 8.3095,7.2962 -5.4469,5.5498 -8.4847,6.8161 -10.944,4.5398 -0.6777,-0.6271 -3.4048,-1.8609 -6.0801,-2.7158 -5.4746,-1.7495 -5.6737,-2.1929 -2.8374,-6.2423 1.5537,-2.2182 2.7984,-2.7767 8.7148,-2.8779 z m -263.43,3.8913 c 6.4131,0 7.0425,1.7465 3.6885,10.255 -4.207,10.674 -1.0456,12.514 6.4855,3.7697 3.2863,-3.8158 5.315,-5.1696 6.8503,-4.5803 2.9752,1.1415 2.7098,4.2444 -1.0134,12.241 -4.3188,9.2766 -1.9561,10.038 5.756,1.824 8.3997,-8.9469 12.234,-8.5369 13.863,1.4998 0.6509,4.0119 0.3554,4.5494 -2.6752,5.31 -4.6791,1.1744 -4.2111,3.956 1.1755,7.134 2.564,1.5128 4.5398,3.6829 4.5398,5.0263 0,1.3081 0.6842,3.0757 1.5403,3.9318 2.0138,2.0137 6.2423,2.0137 6.2423,0 0,-1.2106 0.3297,-1.2106 1.5403,0 0.9065,0.9065 5.2614,1.5808 10.417,1.5808 8.1253,0 8.9366,0.2523 10.012,3.0806 0.9151,2.4069 2.509,3.2666 7.2151,3.9724 8.0132,1.2016 18.002,7.1193 18.565,10.985 0.6897,4.7391 -0.8706,8.9944 -4.094,11.106 -4.7042,3.0823 -23.721,5.2612 -27.644,3.1617 -2.6151,-1.4048 -3.9254,-1.3931 -7.3368,0 -10.928,4.4629 -14.628,5.3 -23.267,5.4316 -8.746,0.1331 -9.4923,-0.079 -12.241,-3.5265 l -2.9184,-3.6481 -3.9724,2.959 c -3.55,2.6246 -17.668,6.5867 -23.632,6.6476 -1.2198,0.012 -3.7057,-1.5777 -5.5127,-3.5265 l -3.2832,-3.5264 -4.2966,2.3104 c -3.0118,1.622 -6.4266,2.2252 -11.35,1.9457 l -7.0529,-0.4054 0,-4.5398 c 0,-3.9603 -0.4505,-4.5945 -3.486,-4.9452 -4.4532,-0.5144 -6.8246,3.4784 -5.6748,9.6066 0.7713,4.1104 0.5884,4.4183 -2.6348,4.4183 -2.8492,0 -3.2928,-0.4682 -2.7157,-2.6753 0.6596,-2.5219 0.3048,-2.6167 -6.0396,-1.824 -4.9005,0.6122 -8.2407,0.2225 -12.241,-1.3782 -6.8644,-2.7465 -7.1245,-5.8648 -0.8513,-9.5661 2.6322,-1.5531 4.2288,-3.3259 3.7291,-4.1345 -0.929,-1.5031 -8.5952,-1.0439 -12.768,0.7702 -2.2632,0.9837 -2.4014,0.6334 -1.662,-4.0129 0.5597,-3.5181 2.1895,-6.3638 5.3505,-9.2824 4.1871,-3.8657 5.2707,-4.2155 13.092,-4.2155 l 8.5528,0 -0.8511,-5.6748 c -0.7473,-4.9825 -0.4902,-5.9346 2.1482,-7.7826 1.6533,-1.158 3.9498,-2.1078 5.1073,-2.1078 1.1576,0 3.2093,-1.2048 4.5399,-2.6752 2.0723,-2.2898 2.1088,-2.848 0.4864,-3.8913 -1.6541,-1.0637 -1.6184,-1.3968 0.081,-2.5131 1.0701,-0.7029 3.8839,-1.6537 6.2422,-2.1078 3.3914,-0.653 4.9405,-0.1789 7.4177,2.1483 2.6185,2.4597 3.4651,2.653 5.1479,1.2566 1.1975,-0.9942 1.6837,-2.6619 1.2161,-4.1345 -1.7444,-5.4963 8.7166,-13.705 12.971,-10.174 2.7587,2.2896 4.2511,0.7385 5.2695,-5.4721 1.2226,-7.4592 3.8123,-10.052 9.9714,-10.052 z m 291.81,2.7969 c 2.1743,-0.073 3.8503,1.0533 6.3639,3.567 5.2146,5.2145 4.7908,7.8872 -1.9862,11.998 -3.5581,2.1585 -6.7536,5.4674 -8.4312,8.7554 -2.8844,5.6542 -4.6612,6.2794 -11.512,3.8913 -3.6132,-1.2596 -4.5191,-1.0391 -8.0662,1.9456 -2.2003,1.8515 -4.5703,3.3644 -5.229,3.3644 -2.6948,0 -0.9349,-5.3056 2.6348,-7.9448 2.1063,-1.5572 4.7047,-4.9934 5.7558,-7.6204 2.6439,-6.6077 8.0065,-12.638 13.903,-15.646 2.9094,-1.4843 4.8754,-2.2534 6.5665,-2.3104 z m 101.05,4.9857 c 5.459,0 6.4045,0.3476 6.4045,2.4725 0,1.3721 1.4024,4.1591 3.121,6.2018 2.3401,2.781 2.7962,4.2943 1.8647,5.9585 -1.6784,2.9994 -2.5384,2.7567 -6.1612,-1.824 -1.7035,-2.1539 -5.3657,-5.378 -8.1474,-7.134 -2.7818,-1.7561 -4.7217,-3.7304 -4.2967,-4.4183 0.4252,-0.6878 3.6903,-1.2565 7.2151,-1.2565 z m -18.889,6.5665 c 3.5512,0.053 5.5889,1.0126 10.498,3.9724 10.068,6.0697 13.923,14.735 8.8364,19.821 -2.8264,2.8262 -4.2454,2.5766 -5.9179,-1.0944 -2.5549,-5.607 -13.798,-6.9844 -32.225,-3.9724 -3.8539,0.6299 -4.902,0.2229 -6.9314,-2.6347 -3.9276,-5.5307 -2.0541,-9.0631 6.6071,-12.404 4.1013,-1.5818 10.812,-3.1473 14.917,-3.4859 1.6839,-0.1389 3.0319,-0.2205 4.2156,-0.2027 z m 70.043,1.0134 c 1.6569,-0.086 3.0752,0.5495 3.6887,2.1483 1.1181,2.914 -0.316,5.9615 -5.3911,11.309 -3.9691,4.1822 -4.271,4.9225 -2.3105,5.6748 1.4015,0.5378 3.7587,-0.261 6.2018,-2.0672 3.3473,-2.4749 4.3651,-2.6677 6.8503,-1.3377 2.3738,1.2704 3.6818,1.1939 6.9313,-0.4864 4.9033,-2.535 4.781,-2.5557 7.2962,-0.041 2.3951,2.3951 1.5743,4.4588 -1.7835,4.4588 -1.2974,0 -3.0843,0.8755 -3.9724,1.9456 -0.8881,1.0701 -2.714,1.9456 -4.0534,1.9456 -3.153,0 -3.1076,2.8703 0.081,5.7559 3.4372,3.1107 2.1423,5.3987 -4.4183,7.9042 -8.4398,3.2233 -11.502,2.2682 -12.484,-3.8102 -0.8177,-5.0591 -2.8415,-7.0897 -8.7959,-8.8365 -6.4942,-1.9053 -16.251,2.7081 -11.755,5.5532 1.0242,0.6481 3.7616,1.1625 6.0801,1.1755 3.6179,0.017 4.2156,0.4809 4.2156,3.2427 0,3.6533 -4.2383,5.4313 -9.7283,4.0534 -2.5516,-0.6403 -3.2427,-1.6593 -3.2427,-4.7019 0,-4.2698 -0.3226,-4.4664 -3.9723,-2.5132 -3.3105,1.7717 -3.2403,7.0148 0.1621,10.417 1.4819,1.482 2.3756,3.5249 1.9862,4.5399 -1.0007,2.6073 -5.9146,2.3163 -6.7288,-0.4054 -1.3202,-4.414 -3.8185,-8.5278 -5.999,-9.8903 -3.4201,-2.1367 -4.3841,0.1528 -1.8645,4.4182 2.7129,4.5924 1.8323,7.0643 -1.8241,5.1073 -3.2465,-1.7374 -6.4044,-7.9583 -6.4044,-12.566 1e-4,-5.0265 7.8177,-11.334 12.809,-10.336 1.9366,0.3873 4.347,0.2149 5.3505,-0.4054 1.565,-0.9686 1.5765,-1.6347 0,-4.5803 -1.5889,-2.9687 -1.5999,-3.8805 0.041,-6.7692 2.9613,-5.214 5.9699,-6.5553 8.6339,-3.8913 1.9642,1.9642 2.0046,2.8047 0.527,6.8908 -0.9242,2.5574 -1.3644,4.9591 -0.9728,5.3505 1.5197,1.5198 5.0462,-1.0776 6.4449,-4.783 1.5438,-4.0903 3.3131,-4.8747 5.7154,-2.4726 2.1664,2.1665 4.256,0.2067 4.256,-4.0129 0,-4.1657 4.786,-7.7961 8.4311,-7.9852 z m -121.48,3.1211 c 6.5393,0.014 9.4631,2.209 11.188,7.3772 0.8186,2.4539 2.3433,4.6822 3.3642,4.9857 2.2216,0.6604 5.1074,4.1009 5.1074,6.0802 0,0.7799 -1.6977,2.4242 -3.7697,3.648 -2.0721,1.224 -3.9985,2.2294 -4.2561,2.2294 -0.2575,0 -1.5162,-2.9605 -2.7969,-6.5665 -1.2807,-3.6059 -3.0979,-6.8484 -4.0535,-7.2151 -0.9553,-0.3666 -4.8575,0.2397 -8.6742,1.3782 -3.817,1.1384 -11.163,2.436 -16.335,2.8779 -8.0101,0.6842 -9.404,0.5129 -9.404,-1.216 0,-6.5946 7.012,-10.734 21.808,-12.89 3.0619,-0.4463 5.6432,-0.6937 7.8231,-0.6891 z m -0.2027,16.822 c 1.531,-0.011 1.9914,1.132 3.04,5.0262 2.9807,11.069 -3.2638,21.376 -17.186,28.334 -9.7631,4.8787 -21.128,5.3251 -31.819,1.216 -7.8583,-3.0203 -15.889,-9.9851 -15.889,-13.782 0,-4.4366 3.6634,-11.639 7.4178,-14.592 3.3257,-2.6159 4.4799,-2.7657 16.538,-1.9861 12.144,0.7851 21.566,-0.2012 35.954,-3.8508 0.8104,-0.2056 1.4353,-0.361 1.9456,-0.3648 z m 50.708,2.351 c 2.9827,0.042 5.3297,0.3407 6.1611,0.9323 0.7369,0.524 2.098,4.0468 3.0402,7.8231 2.141,8.5806 0.6289,12.962 -6.1208,17.632 -10.906,7.547 -25.883,9.3566 -39.115,4.7019 -3.9237,-1.3801 -7.5718,-2.5303 -8.1069,-2.5536 -1.922,-0.084 -0.9212,3.4955 1.6214,5.7964 3.1906,2.8874 3.2734,4.1753 0.3243,5.0262 -1.2485,0.3602 -6.8965,1.0459 -12.525,1.5403 -11.018,0.9678 -12.108,-0.1147 -4.2562,-4.175 7.5093,-3.8831 12.703,-8.8033 15.889,-14.998 1.731,-3.3649 3.1617,-7.0566 3.1617,-8.1879 0,-2.3866 13.274,-8.9975 23.632,-11.755 4.5563,-1.2129 11.324,-1.8534 16.295,-1.7835 z m -116.29,6.9313 c 0.4397,-0.047 0.7565,-0.014 0.8918,0.1216 0.3061,0.3062 0.2088,1.8882 -0.2028,3.5265 -1.4746,5.873 -3.6004,7.2456 -8.6337,5.5127 -2.4969,-0.8597 -4.5398,-2.292 -4.5398,-3.1617 0,-1.3637 9.4068,-5.6665 12.484,-5.9991 z m -79.285,0.2027 c -8.3132,0.1 -20.007,5.738 -22.699,10.944 -1.9428,3.7571 -1.9669,4.3777 -0.081,7.2557 2.6508,4.0456 9.4923,4.2043 19.538,0.4458 8.1159,-3.0365 12.342,-7.7624 9.7687,-10.863 -0.8499,-1.0241 -1.3652,-3.1759 -1.135,-4.8236 0.3857,-2.7562 -0.021,-3.0239 -5.3909,-2.959 z m -3.6481,7.0935 c 3.0902,-0.01 4.294,2.4914 2.1889,4.5804 -2.3889,2.3703 -12.809,4.0185 -12.809,2.0267 0,-1.8441 7.6533,-6.5941 10.62,-6.6071 z m 78.798,6.5665 c 2.1972,0.021 2.6753,0.5027 2.6753,1.6214 0,3.8836 8.0256,11.272 16.984,15.606 4.9091,2.3746 8.5377,4.7169 8.0662,5.1884 -1.2418,1.2418 -36.32,0.7813 -43.209,-0.5675 -7.7594,-1.5192 -12.236,-4.9942 -12.728,-9.8904 -0.6987,-6.9545 4.6917,-9.7558 22.132,-11.512 2.8256,-0.2844 4.7619,-0.4585 6.0801,-0.4459 z m 137.41,1.8646 2.9185,2.8374 2.878,2.8779 -3.567,1.3377 c -7.334,2.7883 -9.0956,1.2869 -4.7426,-4.0129 l 2.5131,-3.0401 z m -248.52,5.9585 c -1.315,0.025 -2.9045,0.128 -4.9046,0.2838 -11.438,0.891 -18.656,3.3995 -21.807,7.6204 -3.1014,4.1537 -1.3638,8.184 4.7019,10.823 11.778,5.1231 33.319,-1.7201 33.319,-10.58 0,-1.6364 -1.5696,-4.1691 -3.567,-5.7558 -2.3574,-1.8728 -3.7968,-2.4664 -7.7421,-2.3916 z m -0.7701,5.0668 c 1.9179,0.048 3.5804,0.2931 4.8235,0.7702 3.4219,1.3131 2.3075,4.4513 -2.2699,6.3638 -9.1536,3.8247 -23.55,3.3932 -23.55,-0.689 0,-3.2509 12.686,-6.6507 20.997,-6.445 z m -128.45,19.051 c 1.062,0.1014 2.2118,0.7134 4.094,1.9051 2.2792,1.4432 4.1345,2.8752 4.1345,3.1617 0,0.2866 -3.5022,0.5269 -7.7826,0.5269 -8.4611,0 -9.828,-1.4739 -4.1345,-4.4182 1.6523,-0.8544 2.6266,-1.2769 3.6886,-1.1755 z"
           id="path3051-97" />
        <path
           d="m 2142,311.71 c -6.1484,-0.009 -10.486,5.1102 -11.282,10.898 -0.7768,1.8165 -0.5753,7.0814 -3.861,4.792 -7.1442,-2.9902 -15.045,4.92 -14.321,12.103 -0.3552,1.7988 -2.2417,4.0364 -3.6967,1.3144 -4.5281,-4.3171 -12.831,-3.3135 -16.731,1.2049 -1.1318,2.0995 2.744,3.8156 -0.356,5.148 -4.1551,3.193 -12.55,4.079 -11.912,10.981 0.5001,4.3579 1.5905,8.8266 -4.6551,6.9279 -7.1881,-0.74467 -14.712,1.582 -18.566,8.078 -2.2127,3.2273 -4.073,8.7752 -1.2049,11.994 3.965,0.19635 8.0749,-2.061 12.186,-1.0953 -2.9367,2.5515 -10.015,6.3147 -5.9969,10.953 5.8646,5.589 14.62,4.2292 22.016,4.4634 -0.8483,4.457 4.9301,6.2437 7.5577,3.2312 2.1846,-3.5682 -1.1572,-9.7642 2.8478,-12.213 2.0679,-0.5995 4.5195,-0.1162 3.8423,2.6514 -1.4437,6.5532 4.1679,7.0608 9.1099,6.2754 5.108,0.11377 10.571,0.021 14.787,-3.286 3.9146,4.2945 9.4614,8.045 15.499,5.7778 7.4527,-1.5939 14.804,-4.043 21.386,-7.9685 2.9058,4.2771 6.6835,7.6029 12.263,5.8682 9.5128,0.21152 19.015,-1.27 27.662,-5.1837 4.8675,-1.3861 9.8328,1.6279 14.924,0.68457 7.4216,-0.80649 16.507,-0.40379 21.934,-6.3255 4.6039,-5.6801 1.872,-14.61 -4.9563,-17.06 -5.2105,-3.6939 -11.882,-4.058 -17.361,-6.8731 -2.293,-3.2735 -5.5095,-6.0976 -9.8578,-5.2429 -5.5558,0.81463 -11.117,-2.4302 -16.457,-0.69926 -3.1596,1.5749 -4.7228,-3.0284 -5.4218,-5.2849 -1.5822,-3.3911 -6.9578,-5.0121 -7.722,-8.078 3.5999,-0.91227 6.7193,-3.8087 5.1754,-7.8042 -0.059,-4.1902 -2.8155,-10.913 -8.1054,-8.2697 -5.1012,2.446 -8.3834,7.1948 -13.007,10.186 1.3208,-5.6271 6.325,-11.754 3.5872,-17.553 -4.4038,-2.9921 -8.6134,3.0428 -11.775,5.504 -0.9925,0.60059 -4.8333,4.983 -3.8063,1.4513 0.1572,-5.127 4.7502,-10.645 2.2181,-15.608 -1.5349,-1.5615 -3.8047,-2.134 -5.9421,-1.9442 z"
           inkscape:connector-curvature="0"
           style="color:#000000;fill:#a15505"
           id="path5161" />
        <path
           d="m 2510.2,194.87 c -5.7142,0.38257 -10.232,4.4304 -14.884,7.3193 -6.9465,4.5489 -13.586,10.149 -21.576,12.711 -2.9514,0.58516 -6.4873,0.95644 -8.9263,-1.1908 -5.8164,-4.7867 -7.0777,-13.51 -13.97,-17.233 -3.1685,-1.9234 -7.0936,-1.0447 -9.9561,1.0027 -7.7512,4.7514 -13.537,12.42 -22.031,15.969 -4.235,1.4697 -8.8602,1.3885 -13.254,1.0262 -5.517,-2.1422 -8.3429,-7.9337 -10.208,-13.172 -0.7803,-2.611 -3.095,-5.0271 -6.0185,-4.5355 -4.5921,1.0523 -8.4181,4.3838 -11.318,7.9968 -3.4069,4.145 -3.0921,10.801 0.6389,14.619 4.0442,2.4466 8.9979,2.4223 13.49,3.5364 7.2043,1.2745 14.033,3.9952 20.966,6.2515 4.0461,1.125 8.8502,1.5975 12.557,-0.7261 4.3688,-3.9609 5.6411,-10.498 10.669,-13.873 4.4119,-1.8302 9.2781,1.604 11.143,5.5474 1.4085,2.3472 1.327,5.0661 1.6749,7.6676 0.9454,4.9788 6.2498,8.0409 11.085,7.4837 3.9146,0.15441 8.2355,0.0406 11.259,-2.8366 4.8938,-4.0112 7.2362,-10.405 12.731,-13.738 3.2783,-2.3873 8.3222,-2.6928 11.017,0.69706 2.2542,2.2271 3.0783,5.438 4.793,7.9763 1.5273,1.287 3.7394,0.0531 5.5304,0.15213 4.1104,-0.33402 8.4631,-1.4014 12.476,-0.0832 2.5464,1.0328 2.4156,4.8246 5.3635,5.3635 5.6661,1.1104 11.558,0.58646 17.281,1.1245 9.3219,0.41067 18.85,2.78 26.32,8.539 2.1301,1.2255 4.5115,4.2208 7.2167,2.6996 3.4407,-2.7099 3.6434,-7.6976 3.4563,-11.734 -0.1478,-4.1231 -1.8152,-8.2502 -5.228,-10.727 -4.7398,-3.6667 -10.368,-6.2254 -16.168,-7.6192 -9.0801,-1.7676 -17.848,2.3276 -26.634,3.7273 -0.7805,0.0947 -2.508,0.26162 -1.7426,-1.1037 1.2516,-4.4844 3.4403,-9.8206 0.3485,-14.067 -3.1874,-4.3968 -8.544,-6.5726 -13.514,-8.2989 -1.4805,-0.44084 -3.0514,-0.52054 -4.5897,-0.47239 z"
           inkscape:connector-curvature="0"
           style="color:#000000;fill:#80fa69"
           id="path5173" />
        <path
           d="m 2438.5,214.96 c -3.9129,0.66772 -5.6313,4.8254 -7.4978,7.8421 -2.047,4.0174 -4.9327,7.5337 -8.4377,10.33 -1.3244,0.98849 -1.3232,2.8512 -0.1103,3.9517 6.9381,9.8592 13.087,21.116 13.514,33.427 -0.1121,2.2278 0.8322,4.9853 3.4418,5.0934 5.6944,0.22862 11.04,-2.4461 16.013,-4.9278 6.5263,-3.5218 12.484,-8.1088 17.668,-13.418 2.8828,-2.7006 0.8717,-7.5936 -2.6236,-8.5777 -6.0476,-1.8102 -11.976,1.5184 -17.514,3.4078 -1.5085,0.57652 -3.2624,0.15957 -4.0888,-1.3152 -2.4524,-3.3018 -5.3257,-6.6457 -9.4942,-7.6788 -0.9303,-0.0806 -1.5726,-0.81973 -1.0262,-1.6265 1.4157,-1.1373 3.283,0.53949 4.4922,1.3263 3.1031,2.1813 5.3869,5.4478 8.7713,7.2514 2.146,0.17145 4.0897,-1.3472 6.1836,-1.7546 4.4232,-1.2385 9.5541,-3.6981 13.963,-1.0626 2.5679,1.3189 4.186,3.9997 6.7479,5.2473 4.2709,-1.5845 8.1658,-4.2027 12.334,-6.109 8.1154,-4.2353 16.696,-7.3084 25.278,-10.369 2.1828,-0.7414 5.1795,-2.5166 4.0855,-5.2667 -1.226,-2.9755 -5.0957,-2.3659 -7.6866,-2.664 -4.184,-0.15927 -8.3716,-0.18205 -12.557,-0.27913 -2.5992,-3.6829 -5.0549,-8.778 -10.117,-9.3038 -5.1568,-0.61079 -8.9242,3.8092 -11.598,7.5902 -2.87,4.1919 -5.9848,8.8981 -11.163,10.33 -3.7083,1.0979 -7.7538,1.0754 -11.53,0.59056 -4.6254,-1.1214 -8.2076,-5.3229 -8.5002,-10.088 -0.4084,-3.3873 -0.071,-7.5846 -3.282,-9.7588 -1.526,-1.1028 -3.2936,-2.3215 -5.2667,-2.188 z"
           inkscape:connector-curvature="0"
           style="color:#000000;fill:#65f949"
           id="path5175" />
        <path
           d="m 2504.8,244.7 c -11.59,3.8867 -21.732,10.693 -31.271,18.182 -9.759,7.5252 -20.286,14.591 -32.665,16.729 -3.0091,1.3178 -8.3619,0.62811 -9.5652,4.3954 0.2597,3.5366 7.1934,4.3636 4.8601,8.4422 -1.7815,3.0004 -7.7093,3.0841 -7.3966,7.2223 1.8762,4.4649 7.9929,3.7063 11.928,4.7439 17.773,1.9067 34.913,6.8501 52.144,11.463 -16.371,-1.8681 -32.511,-5.7269 -48.891,-7.2804 -3.5177,0.55338 -1.335,4.6728 0.5809,5.8476 2.7349,3.067 6.5833,5.9605 6.6608,10.437 2.7887,3.066 7.7753,1.6737 11.54,2.2461 5.5353,-0.22378 11.728,-0.11367 15.858,4.1436 3.9439,2.3965 8.0413,-1.9321 11.657,-3.1457 6.561,-3.0286 13.525,-5.3266 19.653,-9.1883 13.146,-3.239 27.672,-1.0205 40.023,-7.5321 10.084,-3.7484 20.321,-8.825 26.817,-17.717 2.2122,-2.875 -1.3338,-5.6758 -3.6402,-6.4284 3.4461,0.10917 7.1268,-2.1144 6.7383,-5.9637 -0.3591,-3.6649 0.9257,-8.5353 -2.1299,-11.269 -4.0494,-1.0355 -6.2212,4.0986 -10.069,4.4922 -4.4248,1.4994 -9.6475,0.9409 -12.818,-2.827 -2.6124,-2.977 -7.3996,-5.0845 -10.746,-1.9944 -5.9519,6.7058 -7.7536,17.532 -16.768,21.163 -5.0057,1.6494 -12.316,1.7279 -14.638,-4.0081 -1.2838,-5.7254 1.8398,-11.666 0.3292,-17.31 -2.8119,-2.397 -6.8985,0.28496 -9.975,0.92327 -12.39,4.6599 -23.16,13.297 -35.915,16.774 -6.4431,1.5439 -13.198,2.2768 -19.789,1.8395 9.5393,-3.0607 20.074,-3.5075 29.164,-8.2317 9.8891,-4.3517 19.217,-10.123 29.312,-13.9 3.7122,-0.67364 7.8821,-1.1355 11.366,-1.0069 -0.077,6.9832 -2.2443,14.09 -1.065,21.009 1.4758,4.4407 6.732,2.686 9.9912,1.7233 8.794,-2.5835 11.014,-12.509 14.987,-19.537 2.4868,-2.98 7.3096,-2.5782 10.688,-1.9363 3.799,2.4578 7.2795,6.7073 12.392,5.7314 7.9675,-0.29994 11.491,-11.397 6.9706,-17.368 -2.1571,-3.6812 -6.1711,-6.0667 -10.514,-5.3828 -6.543,-0.44289 -13.426,0.70095 -18.242,5.495 -2.3778,1.714 -4.9896,3.9364 -7.7424,4.7866 -1.5865,-2.8812 -0.082,-8.6217 -4.7632,-8.9262 -5.6614,-0.62869 -12.033,1.935 -17.272,-0.87132 -2.8222,-1.5965 -4.5023,-5.7691 -7.7838,-5.9637 z"
           inkscape:connector-curvature="0"
           style="color:#000000;fill:#d97307"
           id="path5177" />
        <path
           d="m 2535.9,239.65 c -7.7004,0.0263 -16.247,1.0369 -22.306,6.1574 -1.9688,2.6101 1.7955,4.1683 3.9694,3.5434 5.4485,0.43505 11.258,-1.1876 16.497,0.54216 1.8339,1.6947 2.7105,5.5976 6.0605,4.5502 4.4436,-1.8641 7.6994,-6.7006 12.973,-6.4284 2.2393,0.3823 6.1834,-1.4163 3.8919,-3.9887 -5.6353,-5.0693 -14.072,-4.1972 -21.086,-4.376 z"
           inkscape:connector-curvature="0"
           style="color:#000000;fill:#a45705"
           id="path5179" />
        <path
           d="m 2386.6,267.78 c -5.1571,0.86468 -9.6479,5.1782 -11.424,9.9912 -0.8963,5.698 3.3473,10.726 4.376,16.149 0.1987,3.2941 2.0444,6.081 5.7034,4.61 3.2392,0.0992 6.9985,-1.1207 10.019,0.0564 2.6096,2.2261 3.2473,7.6556 7.7239,6.1791 6.5676,-0.67959 13.485,0.37241 19.849,-1.5514 2.7518,-1.7529 0.4306,-6.0232 3.5821,-7.5902 1.7677,-1.6966 6.4858,-1.6054 5.8282,-4.9569 -4.5084,-3.9088 -10.587,-5.9945 -16.594,-5.499 -4.5631,0.0922 -9.5284,-0.17812 -12.721,-3.9306 -5.3153,-3.8173 -7.8412,-11.15 -14.29,-13.322 -0.6771,-0.11375 -1.3651,-0.20278 -2.0524,-0.13554 z"
           inkscape:connector-curvature="0"
           style="color:#000000;fill:#e8bb8c"
           id="path5181" />
        <path
           d="m 2434.1,314.69 c -0.2699,-0.007 -0.5346,0.006 -0.8125,0.0312 -9.4695,1.5905 -16.635,9.8161 -20.906,18 -2.3723,5.3863 -8.2565,8.4318 -9.75,14.188 -1.0046,2.9574 2.5931,4.8697 4.75,2.875 3.3514,-1.779 6.6455,-5.8713 10.75,-4.1562 3.6576,1.4369 8.6018,2.0116 11,-1.875 3.2815,-5.5587 8.0359,-9.9082 13.187,-13.688 3.0402,-1.8885 3.6118,-5.9574 1.2813,-8.6562 -2.2983,-2.9947 -5.4513,-6.6124 -9.5,-6.7188 z m 81.031,11.531 c -0.3615,0.0152 -0.6957,0.0172 -1.0626,0.0625 -8.958,0.64674 -19.001,2.239 -25.687,8.75 -3.6504,3.9328 0.1982,10.019 4.0937,12.219 9.0625,0.604 18.218,-1.7761 27.312,-0.4375 4.046,-0.0609 7.542,2.3902 9.5625,5.8438 2.5418,3.4684 7.1647,0.62209 8.4687,-2.5312 3.5546,-7.0279 -2.6242,-14.301 -8.125,-18.156 -4.3393,-2.9404 -9.1455,-5.9773 -14.562,-5.75 z m -50.7,4.28 c -0.7554,0.003 -1.5267,0.0347 -2.2812,0.0625 -8.9638,0.77916 -19.286,1.4925 -25.906,8.3125 -2.5457,2.176 -4.396,8.3103 0.2187,9.125 10.797,1.0696 21.211,-3.2842 31.844,-4.0312 2.7078,1.3529 3.0641,5.2988 4.4688,7.7188 0.8813,2.5921 2.3006,7.8394 5.8124,4.75 2.6299,-1.7191 6.737,-3.2418 7.3438,-6.4688 -1.1836,-5.2374 -7.0968,-7.01 -8.9062,-11.844 -1.743,-4.2102 -5.4128,-8.0627 -10.344,-7.5938 -0.7546,-0.019 -1.4946,-0.0339 -2.25,-0.0312 z m -0.3125,16.656 c -0.1437,6e-5 -0.292,0.0111 -0.4375,0.0312 -11.124,2.6266 -22.414,4.399 -33.906,3.9375 -6.6904,0.47617 -14.143,-1.3933 -20.25,1.9375 -4.8408,4.4829 -8.7868,11.249 -7.9688,18.031 3.1248,6.2111 9.7115,9.9734 15.812,12.875 17.133,7.7652 39.644,1.024 49.469,-15.062 3.6097,-6.1029 3.6646,-14.48 -0.1562,-20.469 -0.6378,-0.79 -1.5569,-1.2816 -2.5625,-1.2812 z m 49.188,2.25 c -13.424,0.29238 -26.8,4.663 -37.781,12.312 -3.1369,3.9637 -3.7145,9.4531 -7.0626,13.344 -4.0816,6.5207 -11.22,9.7495 -17.312,13.938 -2.6144,1.6337 -0.3199,4.853 2.2187,4.375 7.3209,-0.0862 14.839,-0.6755 21.875,-2.6875 3.0316,-2.0898 -0.7705,-5.3894 -2.0313,-7.3438 -2.0081,-2.0375 -1.009,-2.4187 1.4063,-1.3125 10.6,3.7222 22.413,5.3102 33.281,1.5625 7.739,-2.552 16.956,-7.0631 18.531,-15.906 0.2201,-5.8375 -0.8789,-12.261 -4.4688,-16.969 -2.4881,-1.6336 -5.8262,-1.2521 -8.6562,-1.3125 z m -114.62,7.1875 c -4.4489,1.0936 -9.431,2.2899 -12.812,5.5312 -1.9631,3.61 2.952,5.6162 5.6875,6.3125 3.5529,1.466 8.0115,-0.41375 8.625,-4.4062 0.5613,-2.2094 2.6335,-7.5804 -1.5,-7.4375 z m -5.875,13.875 c -0.4188,0.004 -0.8159,0.0203 -1.2188,0.0312 -8.0277,0.86172 -16.935,0.88179 -23.75,5.6875 -5.4002,4.2457 -2.3148,13.538 3.4688,15.969 10.758,5.0625 23.124,3.0649 34.656,3.7188 5.3966,-0.39605 11.198,0.82836 16.375,-0.875 2.3431,-2.852 -2.6571,-4.4813 -4.3437,-5.8438 -6.6417,-4.2669 -14.754,-7.5857 -18.719,-14.812 -0.4035,-3.5563 -3.5371,-3.9019 -6.4688,-3.875 z"
           inkscape:connector-curvature="0"
           style="color:#000000;fill:#ff9209"
           id="path5183" />
        <path
           d="m 2585.9,327.03 c -5.003,0.38637 -9.5326,4.515 -9.8556,9.6233 -0.2284,1.0257 -0.3873,2.289 -1.0456,3.069 -1.7746,-1.7458 -5.003,-3.0267 -6.835,-0.63897 -2.1238,2.2477 -2.483,6.01 -5.5087,7.3675 0.5002,-3.3994 2.9608,-7.0113 1.2876,-10.417 -1.4181,-2.732 -5.0907,-4.3378 -7.8129,-2.4784 -2.814,1.9209 -4.9732,5.0036 -5.7604,8.3163 -0.3494,2.6293 1.471,4.9434 1.9847,7.3385 -3.0877,1.3769 -6.8076,-0.45349 -9.875,1.2102 -4.3112,2.0015 -8.4738,5.7447 -9.2167,10.64 0.049,4.4668 1.8695,8.9346 4.7148,12.353 1.7675,1.778 4.8614,3.9246 7.2611,2.0428 1.971,-2.9584 -0.6728,-6.2826 -1.6436,-9.1078 -0.4799,-0.85164 -0.042,-0.79777 0.5108,-0.29278 3.1239,2.4942 4.2149,6.5012 5.896,9.9234 2.0595,3.1022 8.1654,2.9002 8.9553,-1.1327 0.7171,-4.3607 -5.0586,-6.7389 -4.2017,-11.114 -0.1373,-1.7122 1.6945,-2.6908 2.9625,-3.098 0.4304,2.5813 -0.062,6.3262 3.0593,7.3966 3.8925,1.4792 9.3644,1.7221 12.121,-1.946 1.1813,-2.0526 1.6633,-5.5936 -0.7165,-6.9803 -2.9683,-1.5928 -6.7909,-0.15764 -9.5361,-2.159 2.3823,-2.372 6.184,-2.9197 9.4006,-2.5462 3.6118,0.52895 7.8876,2.2861 8.6939,6.3122 0.7346,3.0854 1.5295,7.271 5.2376,8.0065 4.331,0.74095 8.5945,-1.1737 12.499,-2.827 2.383,-1.0976 5.34,-3.4771 3.9888,-6.4284 -0.7742,-2.1656 -3.1059,-3.477 -3.7758,-5.6152 1.0642,-0.54753 2.5534,-0.29002 3.6015,-1.094 2.1899,-1.1243 3.93,-3.447 6.6124,-3.1948 2.3732,-0.39904 4.2409,-3.2339 2.5655,-5.3635 -1.4132,-2.2914 -4.2624,-4.8584 -7.0867,-3.2529 -2.4953,0.67856 -4.7289,2.9978 -7.445,2.3332 -2.4198,-1.1275 -5.419,-1.8952 -7.7741,-0.1549 -2.0207,1.1238 -3.9298,2.8841 -6.322,3.0206 3.0114,-4.2796 8.0197,-7.7203 8.6261,-13.273 0.404,-3.2336 -2.2603,-6.2 -5.5668,-5.8379 z"
           inkscape:connector-curvature="0"
           style="color:#000000;fill:#ffd709"
           id="path5203" />
        <path
           d="m 2590.5,300.02 c -3.5425,0.60947 -5.8568,3.8224 -8.2872,6.1864 -1.8991,1.6283 -2.9876,4.6158 -1.2199,6.7576 0.6406,1.0526 1.8696,1.8239 2.4204,2.8173 -0.9442,0.89587 -2.0133,2.681 -3.5144,1.6555 -2.981,-0.86883 -3.9592,-3.9468 -5.3441,-6.3413 -2.2156,-3.7345 -8.1776,-1.6675 -9.207,2.0331 -0.8491,3.169 1.1738,6.7787 -1.0165,9.6039 -0.633,1.1599 -0.6652,-1.1462 -0.8229,-1.4909 -0.065,-2.6746 -1.1927,-6.136 -4.3373,-6.3994 -3.823,-0.21122 -8.1385,1.0461 -10.562,4.1727 -2.283,3.4041 -0.8997,9.454 3.5531,10.204 3.0127,0.81573 6.5314,-1.1081 9.1102,1.1618 2.7717,1.7931 5.0416,4.3442 7.7883,6.1251 2.3026,0.59055 2.3044,-2.5273 3.1806,-3.9371 2.4762,-5.6425 8.3944,-10.128 14.706,-9.3812 4.3831,0.70142 6.8437,5.121 7.1254,9.236 0.4689,2.0652 -0.2069,4.8587 1.704,6.2638 2.5865,0.63907 5.0521,-1.2541 7.6579,-1.2779 3.1116,-0.47614 6.6905,-0.12725 8.7617,2.5075 2.6101,2.5515 3.3499,7.3205 7.3869,8.0936 3.6917,0.26927 6.2158,-3.0502 8.6745,-5.2957 2.205,-2.3971 5.0998,-5.9494 3.1755,-9.3232 -2.6633,-3.8865 -8.4747,-5.6225 -12.472,-2.6748 -1.4811,0.75175 -2.709,2.3668 -4.3829,2.5876 -2.7248,-0.91552 -5.6785,-1.9005 -7.9775,-3.5434 0.3172,-1.763 2.5493,-2.3819 3.8145,-3.4175 3.0612,-2.5147 6.7055,-5.4015 7.1933,-9.6039 0.061,-3.0638 -3.5638,-3.7852 -5.9831,-3.6692 -3.6639,-0.35914 -6.9765,1.2983 -10.215,2.7375 -2.0893,0.69253 -4.878,1.2277 -6.795,0.11847 0.1904,-4.5576 2.4504,-9.7234 -0.5809,-13.835 -0.7833,-1.1827 -2.0286,-2.2097 -3.5337,-2.0718 z"
           inkscape:connector-curvature="0"
           style="color:#000000;fill:#ffd709"
           id="path5205" />
        <path
           d="m 2534.2,319.45 c -2.4966,0.23509 -5.4974,-0.0928 -7.4837,1.6942 -1.5562,2.3272 1.196,4.4213 2.9074,5.6274 5.055,3.2272 8.8475,7.9078 13.29,11.838 2.1748,1.5004 4.3877,-1.266 5.073,-3.1658 1.0854,-3.6493 -2.451,-6.3947 -3.9694,-9.3328 -1.6111,-1.8697 -0.6193,-5.2589 -3.3885,-6.1574 -2.0653,-0.59405 -4.2978,-0.46036 -6.4284,-0.50343 z"
           inkscape:connector-curvature="0"
           style="color:#000000;fill:#ffd709"
           id="path5207" />
        <path
           d="m 2531.5,372.17 c -2.1568,1.4902 -3.5842,3.9097 -5.0633,6.0508 -1.2871,1.7591 -0.849,5.2043 1.8394,5.0924 3.6115,-0.14434 7.1794,-1.4343 10.377,-2.9734 1.6982,-1.7883 -1.2375,-3.4081 -2.274,-4.7018 -1.5318,-1.1734 -2.7201,-3.6689 -4.8793,-3.4681 z"
           inkscape:connector-curvature="0"
           style="color:#000000;fill:#ffd709"
           id="path5209" />
        <path
           d="m 2281.1,383.25 c -6.8208,0.6785 -14.634,0.99556 -19.963,5.8088 -2.5348,3.3005 2.1397,6.1581 5.1311,6.0218 7.9143,0.34756 17.149,0.71371 23.39,-4.9375 3.0395,-2.8856 -0.6038,-7.0336 -4.0662,-6.777 -1.4919,-0.15524 -2.994,-0.16016 -4.4921,-0.11618 z"
           inkscape:connector-curvature="0"
           style="color:#000000;fill:#ffd709"
           id="path5211" />
        <path
           d="m 2273,273.84 c 5.0031,-2.493 12.235,-4.8853 14.896,0.43813"
           inkscape:connector-curvature="0"
           style="fill:none;stroke:#000000;stroke-width:1px"
           id="path5215" />
        <path
           d="m 2310.7,277.35 c 5.325,-3.5803 16.332,-2.4339 12.706,4.8194"
           inkscape:connector-curvature="0"
           style="fill:none;stroke:#000000;stroke-width:1px"
           id="path5217" />
        <path
           d="m 2285.3,370.67 c 5.9208,2.4423 8.3768,3.8908 11.83,0.43813"
           inkscape:connector-curvature="0"
           style="fill:none;stroke:#000000;stroke-width:1px"
           id="path5219" />
        <path
           d="m 2324.3,368.48 c 3.3264,1.3192 7.405,1.7309 10.077,3.0669"
           inkscape:connector-curvature="0"
           style="fill:none;stroke:#000000;stroke-width:1px"
           id="path5221" />
        <path
           d="m 2382.7,225.42 c -9.6848,0.0695 -19.65,1.0248 -28.437,5.3534 -4.8139,1.463 -9.9219,2.2456 -14.347,4.8374 -9.7329,5.163 -18.906,12.052 -25.112,21.272 -2.9374,5.158 -2.5425,11.387 -3.3818,17.101 -0.6245,1.9592 1.113,3.7178 3.0908,2.8885 2.7824,-0.54965 7.0528,-0.93212 8.4786,2.1226 -0.242,1.767 -0.3782,4.9721 2.3591,3.9668 3.5882,-1.2671 7.6182,-2.1708 11.36,-1.5708 2.7452,1.6771 6.1399,4.2738 5.3576,7.9547 -0.2019,2.8086 -0.4987,7.1018 3.1311,7.818 4.6837,2.0486 8.6763,-1.9378 12.774,-3.5187 4.026,-2.1899 8.841,-2.8192 12.706,-5.1754 0.5133,-4.0731 -0.5114,-8.408 0.2053,-12.432 3.4815,-4.7975 8.4388,-8.4096 11.912,-13.143 -0.3711,-2.7881 -3.7986,-4.4804 -4.1216,-7.5317 -1.13,-5.0653 -0.041,-11.929 -5.3945,-14.91 -3.5997,-1.8725 -8.0281,-1.372 -11.912,-0.78041 -2.8378,0.32265 -3.1242,3.4441 -2.3139,5.6135 0.7635,5.3236 3.6727,10.699 2.3002,16.074 -1.8817,3.5459 -6.923,3.2866 -10.022,1.6156 -3.7673,-2.0658 -3.7992,-8.5352 -8.831,-8.7352 -5.227,0.51347 -8.7097,5.9891 -8.7489,10.967 -0.2932,1.9116 -0.098,4.342 -0.8352,6.0106 -1.3594,-1.2696 -0.6372,-3.7426 -0.6572,-5.4492 0.7939,-5.4322 3.2506,-12.273 9.3924,-13.349 4.6239,-0.72931 6.7298,4.6427 9.3513,7.4482 1.5625,1.9424 5.1798,4.3468 7.0375,1.4513 2.5923,-3.8795 0.086,-8.7383 -0.6257,-12.843 -0.7349,-3.0955 -2.5773,-7.6986 0.8858,-9.7341 4.8874,-2.6679 11.014,-2.2121 16.019,-0.12322 5.6738,3.2764 5.1977,10.637 6.791,16.197 0.7079,3.9296 5.6491,4.6049 8.6941,3.1354 5.2488,-4.1171 4.1207,-12.975 10.46,-16.06 4.2744,-1.6438 9.1434,-1.5337 13.623,-0.83518 3.6061,1.6905 2.5999,6.5822 1.3692,9.5019 -1.2069,3.806 -4.5542,6.8607 -4.9153,10.898 0.7194,3.4026 6.2713,3.0691 6.4076,6.7773 0.069,1.2137 -0.2123,3.3151 -1.3691,3.7789 -0.5127,-2.0916 -1.1599,-4.5598 -3.5187,-5.3123 -2.2392,-0.98675 -6.0289,-1.6536 -6.1749,-4.6414 1.1212,-5.6791 6.6279,-9.6218 7.2428,-15.444 -0.3934,-4.0111 -5.5314,-4.0681 -8.5435,-3.4366 -4.5299,0.43876 -7.2905,4.4829 -8.4599,8.5173 -0.9008,3.5605 -2.9509,6.6469 -4.3417,9.9662 -0.2998,2.7574 2.868,4.1183 4.0352,6.3145 4.094,4.6554 7.2502,10.982 13.38,13.223 5.824,1.2725 11.53,-1.6213 16.991,-3.2997 3.9228,-1.2269 8.7124,-3.5251 8.6941,-8.3244 -0.232,-10.184 -5.4059,-19.65 -11.638,-27.452 -8.984,-11.273 -23.665,-16.953 -37.898,-16.704 -0.817,-0.0165 -1.6338,-0.0147 -2.4508,0 z"
           inkscape:connector-curvature="0"
           style="color:#000000;fill:#ff7676"
           id="path5223" />
        <path
           d="m 2321,232.87 c -3.9015,-0.33823 -7.2548,2.6209 -7.9274,6.3802 -1.1862,3.5582 -1.0101,8.9128 -5.148,10.392 -5.8408,1.2032 -11.802,-1.9622 -17.621,-0.45182 -2.9619,2.3228 -1.2746,6.6811 -0.8763,9.8031 1.0588,3.2366 1.3342,7.54 4.5319,9.4472 3.5515,0.738 7.4639,0.72142 10.953,-0.3286 3.7466,-1.8088 2.9001,-6.6884 5.0796,-9.6936 4.3185,-7.9903 11.609,-13.579 17.06,-20.661 1.5056,-2.0917 -0.2003,-5.2918 -2.9163,-4.8057 -1.0403,-0.0789 -2.09,-0.11956 -3.1353,-0.0822 z"
           inkscape:connector-curvature="0"
           style="color:#000000;fill:#ff3c3c"
           id="path5225" />
        <path
           d="m 2325.9,217.33 c -12.48,0.32989 -23.961,6.6542 -33.763,13.924 -6.2602,5.1581 -12.552,10.653 -16.882,17.566 -2.161,3.308 -1.2806,7.8429 1.8484,10.2 3.1369,2.948 1.1935,7.8011 0.4518,11.419 0.168,2.885 3.4615,1.5857 5.2302,1.7251 2.5513,-0.47597 3.524,3.2186 6.0106,2.1496 3.0222,-1.387 1.952,-5.0946 0.9877,-7.5051 -1.9847,-6.3214 -3.6894,-13.418 -1.33,-19.864 0.7138,-1.8038 2.7094,-2.4889 4.4793,-1.639 4.7803,1.0528 10.154,3.8464 15.017,1.68 3.5712,-2.3993 1.9511,-7.4667 4.3676,-10.638 1.9376,-3.3964 5.5472,-6.3369 9.721,-5.4355 6.0058,0.6953 12.31,2.8441 18.155,0.21906 2.772,-1.2919 6.5797,-2.1384 7.9684,-5.0932 -0.084,-3.4105 -4.2913,-4.4807 -6.8047,-5.7504 -4.9173,-1.8867 -10.172,-3.0486 -15.458,-2.9574 z"
           inkscape:connector-curvature="0"
           style="color:#000000;fill:#ff1616"
           id="path5227" />
        <path
           d="m 2221.5,257.48 c -0.3848,5.5195 1.2784,11.152 2.2848,16.652 -10.266,0.58346 -21.975,-2.3687 -31.406,2.5559 -2.1375,4.8815 5.7322,7.3306 8.3647,10.262 4.6501,2.0231 3.5116,3.4919 -1.0944,3.8663 -7.1122,1.5356 -14.911,2.6341 -20.786,7.0156 -0.8088,3.2431 9.4004,5.5958 4.376,7.5127 -5.145,1.9064 -10.976,5.7273 -16.187,2.1686 -6.0682,0.9418 -0.1673,8.0807 2.4397,9.9137 4.4857,5.7816 10.237,7.7217 14.561,0.58089 5.1277,-3.8303 11.6,-9.0829 18.24,-8.1324 -5.3762,6.8209 -16.884,9.2503 -19.13,18.433 -0.8724,4.6553 8.7421,6.9854 2.8657,10.146 -4.6871,2.9241 -5.6279,10.346 0.2711,12.47 5.2117,0.83012 7.7532,8.7402 13.322,6.8544 5.479,-5.5342 3.0311,-14.717 7.3965,-21.067 1.753,-3.6572 5.7347,-9.4817 9.9137,-8.1711 -3.2116,6.1525 -10.316,13.255 -7.8225,20.602 3.4266,2.4164 9.0549,0.50648 12.121,2.0912 -2.0313,3.0137 -9.5239,7.7717 -3.4466,10.766 6.5483,2.9611 15.766,9.2776 22.112,2.4397 2.2223,-1.677 5.8402,-5.8465 8.6745,-4.2598 -0.2608,4.714 -9.5486,9.2655 -4.1824,13.476 9.5657,0.76944 20.198,-3.6416 26.372,-11.037 3.2062,-5.7387 10.704,-12.948 17.62,-9.9137 0.8465,2.1313 -4.9466,2.7438 -6.3897,4.1436 -5.2112,1.1142 -8.3282,8.2237 -2.3623,10.921 4.76,2.5553 9.9797,6.3648 15.335,6.1961 6.1361,-8.6134 17.026,-16.032 27.766,-14.251 1.6407,4.7268 2.891,12.654 9.9524,10.843 3.6907,0.0874 2.931,6.3753 6.5059,7.6289 4.1156,3.3272 15.613,2.8151 13.941,-4.4534 -0.8765,-3.2934 -6.7142,-5.2072 -6.9319,-7.048 5.9813,-0.65717 10.466,5.0706 16.032,5.1505 3.6219,-3.1543 -3.9977,-7.965 -1.5103,-11.114 3.7931,-0.90028 4.2382,5.1748 8.4809,4.9569 4.8236,2.4338 11.11,-1.4736 8.5583,-7.0093 -2.4825,-5.7576 5.9867,-3.6703 9.023,-4.376 4.0238,0.25251 13.822,-1.8506 10.34,-7.5902 -3.8006,-3.0113 -9.6963,-3.7387 -13.167,-6.4672 6.9748,-2.3497 19.895,0.29858 21.57,-9.7976 -2.201,-7.3563 -12.303,-6.114 -18.317,-6.6608 -4.1599,0.28593 -9.5769,0.16076 -3.9112,-3.7564 4.395,-4.9921 12.644,-10.773 10.766,-18.317 -4.4597,-4.0384 -10.385,2.6693 -14.057,5.1118 -5.7097,3.9331 -9.4904,10.607 -7.0868,17.581 -0.458,9.8557 -13.66,16.352 -21.493,13.438 5.1775,-4.2277 15.612,-4.6264 16.768,-12.392 -1.7479,-8.1238 -12.061,-4.1175 -17.659,-4.2598 -8.1432,-0.29855 -17.526,1.3327 -25.017,-1.8201 8.2041,-2.7188 21.048,-2.0374 25.443,-11.54 -0.8195,-7.9307 -11.743,-7.0842 -17.349,-5.1892 -7.8252,2.0294 -17.557,6.0966 -25.017,1.1618 8.9428,-3.369 20.327,-4.6451 26.488,-12.857 2.2347,-5.4052 -5.5099,-4.8938 -8.2872,-2.8657 -4.4301,0.97303 -9.6978,5.4311 -14.019,3.7951 0.6163,-6.5417 13.822,-6.9427 10.843,-14.328 -5.6819,-4.2595 -13.18,-1.0442 -17.814,3.2917 -2.5959,1.4506 -7.6495,4.0325 -9.9524,2.401 1.4523,-2.818 8.8664,-5.3849 5.073,-8.7132 -8.5658,1.4163 -16.802,7.5026 -21.454,14.754 -1.0733,4.6012 -5.1871,0.60383 -3.6015,-2.3622 2.5389,-5.4766 9.2958,-8.1995 11.153,-14.019 -2.6869,-5.3043 -10.333,-1.2369 -12.702,2.6333 -2.257,1.8465 -6.2406,5.0142 -8.1323,5.2667 2.3092,-5.747 11.23,-10.838 8.4421,-17.581 -6.8997,-3.989 -15.098,2.187 -20.95,5.7314 -4.4443,2.5044 -6.4287,7.0158 -6.8544,11.734 -4.5434,2.0742 -15.42,-0.76073 -14.793,7.1642 1.0954,3.3757 7.0933,5.5332 7.1255,8.1324 -5.9331,0.54738 -15.854,-5.3198 -12.005,-12.121 4.7817,-6.7811 16.421,-7.3873 18.898,-15.839 -2.6274,-7.4654 -11.439,-12.53 -19.402,-11.153 -1.7068,0.23348 -3.6726,-0.578 -5.1504,0.61961 z"
           inkscape:connector-curvature="0"
           style="color:#000000;fill:#fbdfbf"
           id="path5231" />
        <path
           d="m 2371.3,295.01 c -3.1787,0.2137 -6.1173,3.1741 -9.3083,1.3899 -2.841,-0.94978 -7.7502,-0.89151 -8.2443,2.9092 0.7883,4.3485 1.7255,8.7352 2.7383,13.062 1.1066,3.5084 5.6172,3.9914 8.7489,4.1348 4.8932,-0.55581 6.0888,-6.266 7.6439,-10.041 0.8892,-3.2806 3.0739,-7.1923 1.1187,-10.427 -0.6765,-0.75936 -1.684,-1.1452 -2.6972,-1.0269 z"
           inkscape:connector-curvature="0"
           style="color:#000000;fill:#fbdfbf"
           id="path5233" />
        <path
           d="m 2405,307.78 c -3.5795,0.022 -7.6852,0.47058 -9.6799,3.8747 -1.9988,1.8437 -2.5213,5.876 0.6161,6.8321 3.6119,1.4498 7.1787,3.0321 10.638,4.7783 4.7091,1.1338 8.2697,-3.2382 11.432,-5.9969 1.7054,-2.0259 5.225,-4.7199 3.4913,-7.6399 -2.8304,-2.2767 -6.9479,-1.3413 -10.323,-1.8206 -2.0574,-0.0696 -4.1172,-0.0768 -6.1751,-0.0278 z"
           inkscape:connector-curvature="0"
           style="color:#000000;fill:#fbdfbf"
           id="path5235" />
        <path
           d="m 2316,363.71 c -4.6066,0.49783 -9.1694,3.1083 -11.843,6.8868 -1.2382,2.6569 2.2605,3.695 4.2581,3.2586 4.3162,-0.35199 10.207,-0.93792 12.021,-5.5862 0.6667,-2.7029 -1.8662,-4.839 -4.4361,-4.5593 z"
           inkscape:connector-curvature="0"
           style="color:#000000;fill:#fbdfbf"
           id="path5237" />
      </g>
    </g>
  </g>
  <metadata
     id="metadata143038">
    <rdf:RDF>
      <cc:Work>
        <dc:format>image/svg+xml</dc:format>
        <dc:type
           rdf:resource="http://purl.org/dc/dcmitype/StillImage" />
        <cc:license
           rdf:resource="http://creativecommons.org/licenses/publicdomain/" />
        <dc:publisher>
          <cc:Agent
             rdf:about="http://openclipart.org/">
            <dc:title>Openclipart</dc:title>
          </cc:Agent>
        </dc:publisher>
        <dc:title>horrio das refeies</dc:title>
        <dc:date>2011-04-16T05:21:09</dc:date>
        <dc:description>Desenho alertando sobre os horrios das refeies.</dc:description>
        <dc:source>https://openclipart.org/detail/132691/horrio-das-refeies-by-nara_oliveira</dc:source>
        <dc:creator>
          <cc:Agent>
            <dc:title>nara_oliveira</dc:title>
          </cc:Agent>
        </dc:creator>
        <dc:subject>
          <rdf:Bag>
            <rdf:li>alimentao</rdf:li>
            <rdf:li>clock</rdf:li>
            <rdf:li>comida</rdf:li>
            <rdf:li>healthy food</rdf:li>
            <rdf:li>lunch time</rdf:li>
            <rdf:li>meal</rdf:li>
            <rdf:li>refeio</rdf:li>
            <rdf:li>relgio</rdf:li>
            <rdf:li>saudvel</rdf:li>
            <rdf:li>time</rdf:li>
          </rdf:Bag>
        </dc:subject>
      </cc:Work>
      <cc:License
         rdf:about="http://creativecommons.org/licenses/publicdomain/">
        <cc:permits
           rdf:resource="http://creativecommons.org/ns#Reproduction" />
        <cc:permits
           rdf:resource="http://creativecommons.org/ns#Distribution" />
        <cc:permits
           rdf:resource="http://creativecommons.org/ns#DerivativeWorks" />
      </cc:License>
    </rdf:RDF>
  </metadata>
</svg>
